<svg class="quote" width="90" height="66" viewBox="0 0 90 66" xmlns="http://www.w3.org/2000/svg">
                                                    <path d="M2.14042 65.4859L2.13985 65.486C0.465777 65.6958 -0.145829 63.4059 1.3666 62.74L1.36702 62.7398C10.6535 58.6405 15.5326 53.3624 16.1668 47.9767L16.1669 47.9766C16.6365 43.9852 14.4641 40.3342 11.5096 39.6286L11.5095 39.6286C8.26933 38.8558 5.52035 36.4554 3.57183 33.1359C1.62485 29.819 0.502964 25.6234 0.502964 21.3522C0.502964 15.8231 2.71671 10.5197 6.65849 6.60885C10.6004 2.69787 15.9476 0.5 21.524 0.5C27.6271 0.5 32.8687 2.99571 36.5916 7.3391C40.3187 11.6874 42.5449 17.9146 42.545 25.3967C42.4673 47.107 26.0325 62.5195 2.14042 65.4859ZM49.0954 65.4859L49.0948 65.486C47.4208 65.6958 46.8091 63.4059 48.3216 62.74L48.322 62.7398C57.6084 58.6405 62.4875 53.3624 63.1218 47.9767L63.1218 47.9766C63.5915 43.9852 61.4191 40.3342 58.4646 39.6286L58.4644 39.6286C55.2243 38.8558 52.4753 36.4554 50.5268 33.1359C48.5798 29.819 47.4579 25.6234 47.4579 21.3522C47.4579 15.8231 49.6717 10.5197 53.6135 6.60885C57.5554 2.69787 62.9026 0.5 68.479 0.5C74.5821 0.5 79.8236 2.99571 83.5466 7.3391C87.2735 11.6872 89.4996 17.914 89.5 25.3957C89.4229 47.1065 72.9879 62.5194 49.0954 65.4859Z"/>
                                                </svg>