<svg width="40" height="40" viewBox="0 0 40 40" xmlns="http://www.w3.org/2000/svg">
                                                            <mask id="mask0_2391_221434" style="mask-type:alpha" maskUnits="userSpaceOnUse" x="0" y="0" width="40" height="40">
                                                                <rect x="40" y="40" width="40" height="40" transform="rotate(180 40 40)"/>
                                                            </mask>
                                                            <g>
                                                                <path d="M19.9977 1C24.8993 1 27.9636 6.30546 25.5128 10.5498L19.9977 20.0996L14.4826 10.5498C12.0318 6.30546 15.096 1 19.9977 1Z"/>
                                                                <path d="M19.9977 39C15.096 39 12.0318 33.6946 14.4826 29.4502L19.9977 19.9004L25.5128 29.4502C27.9636 33.6946 24.8993 39 19.9977 39Z"/>
                                                                <path d="M39.0077 19.994C39.0077 24.8946 33.7012 27.9583 29.456 25.5079L19.9043 19.994L29.456 14.48C33.7012 12.0296 39.0077 15.0933 39.0077 19.994Z"/>
                                                                <path d="M1 19.994C1 15.0933 6.30651 12.0296 10.5517 14.48L20.1034 19.994L10.5517 25.5079C6.30651 27.9583 1 24.8961 1 19.994Z"/>
                                                            </g>
                                                        </svg>