<svg width="40" height="40" viewBox="0 0 40 40" xmlns="http://www.w3.org/2000/svg">
                                                            <mask id="mask0_2391_221361" style="mask-type:alpha" maskUnits="userSpaceOnUse" x="0" y="0" width="40" height="40">
                                                                <rect x="40" y="40" width="40" height="40" transform="rotate(180 40 40)"/>
                                                            </mask>
                                                            <g>
                                                                <path d="M17.6034 7.87601C19.603 5.64108 22.3392 3.27055 25.6836 0.990994C29.6875 -1.5941 30.9551 1.40295 29.3786 4.39487C27.926 7.12931 27.2681 9.42432 27.1362 11.5442C29.755 12.0575 32.8484 12.9346 36.603 14.7679C41.2567 17.0698 40.8578 21.5911 37.0534 21.059C33.9294 20.853 31.8125 21.277 30.0784 22.1507C31.013 24.753 31.7642 27.8565 32.0538 31.7118C32.5669 36.0735 28.2284 40.1331 26.5539 36.7378C25.1511 33.9158 23.8465 31.6689 22.3972 30.1206C20.3976 32.3555 17.6614 34.726 14.317 37.0056C10.3131 39.5907 9.04555 36.5936 10.622 33.6017C12.0746 30.8673 12.7325 28.5722 12.8644 26.4523C10.2456 25.9391 7.15219 25.0619 3.39765 23.2287C-1.25611 20.9268 -0.858775 16.4054 2.94724 16.9393C6.07119 17.1453 8.18815 16.7213 9.92225 15.8493C8.98764 13.247 8.23641 10.1435 7.94685 6.28821C7.4337 1.9265 11.7706 -2.1331 13.4468 1.2622C14.8495 4.08075 16.1557 6.32769 17.6034 7.87601Z"/>
                                                            </g>
                                                        </svg>