<svg width="40" height="40" viewBox="0 0 40 40" xmlns="http://www.w3.org/2000/svg">
                                                            <mask id="mask0_2391_221415" style="mask-type:alpha" maskUnits="userSpaceOnUse" x="0" y="0" width="40" height="40">
                                                                <rect x="40" y="40" width="40" height="40" transform="rotate(180 40 40)"/>
                                                            </mask>
                                                            <g>
                                                                <path d="M38.9996 37.8985C37.5077 38.6145 35.8968 39.0001 34.2217 39.0001C26.367 39.0001 19.998 30.4952 19.998 20.0012C19.998 9.50715 26.367 1.0022 34.2217 1.0022C35.8968 1.0022 37.5077 1.3898 38.9996 2.10382C33.4949 4.71916 29.5538 11.7451 29.5538 20.0012C29.5553 28.2552 33.4949 35.2811 38.9996 37.8985Z"/>
                                                                <path d="M1 2.10162C2.49184 1.38556 4.1028 1 5.77788 1C13.6326 1 20.0016 9.50496 20.0016 19.999C20.0016 30.493 13.6326 38.9979 5.77788 38.9979C4.1028 38.9979 2.49184 38.6103 1 37.8963C6.5047 35.2809 10.4458 28.255 10.4458 19.999C10.4443 11.7449 6.5047 4.719 1 2.10162Z"/>
                                                            </g>
                                                        </svg>