<svg width="124" height="186" viewBox="0 0 124 186" fill="none" xmlns="http://www.w3.org/2000/svg">
                                        <path d="M115.283 60.293L115.442 60.9424L116.021 60.6064L170.748 28.7793L136.229 79.1221L135.805 79.7422L136.54 79.8945L199.546 93L136.54 106.105L135.805 106.258L136.229 106.878L170.748 157.209L116.021 125.383L115.442 125.047L115.283 125.696L101.005 183.901L86.7275 125.696L86.5684 125.047L85.9912 125.383L31.251 157.209L65.7705 106.878L66.1953 106.258L65.46 106.105L2.45312 93L65.46 79.8945L66.1953 79.7422L65.7705 79.1221L31.25 28.7783L85.9912 60.6064L86.5684 60.9424L86.7275 60.293L101.005 2.09668L115.283 60.293Z" stroke="#DEDEDE"/>
                                    </svg>