<svg width="16" height="16" viewBox="0 0 16 16" xmlns="http://www.w3.org/2000/svg">
                                <g>
                                    <path d="M4.6142 0.138593C3.82636 -0.0461926 3.00645 -0.0461926 2.21861 0.138593C1.71263 0.257272 1.24984 0.514861 0.882348 0.882352C0.514858 1.24984 0.257268 1.71264 0.138589 2.21862C-0.0461965 3.00645 -0.0461965 3.82636 0.138589 4.6142C0.257268 5.12018 0.514858 5.58297 0.882348 5.95046C1.24984 6.31796 1.71263 6.57554 2.21861 6.69422C3.00645 6.87904 3.82636 6.87904 4.6142 6.69422C5.12017 6.57554 5.58297 6.31796 5.95046 5.95046C6.31795 5.58297 6.57554 5.12018 6.69422 4.6142C6.87904 3.82637 6.87904 3.00645 6.69422 2.21862C6.57554 1.71264 6.31795 1.24984 5.95046 0.882352C5.58297 0.514861 5.12017 0.257272 4.6142 0.138593ZM4.6142 9.30581C3.82636 9.12099 3.00645 9.12099 2.21861 9.30581C1.71263 9.42449 1.24984 9.68208 0.882348 10.0496C0.514858 10.4171 0.257268 10.8799 0.138589 11.3858C-0.0461965 12.1737 -0.0461965 12.9936 0.138589 13.7814C0.257268 14.2874 0.514858 14.7502 0.882348 15.1177C1.24984 15.4852 1.71263 15.7428 2.21861 15.8614C3.00645 16.0462 3.82635 16.0462 4.6142 15.8614C5.12017 15.7428 5.58297 15.4852 5.95046 15.1177C6.31795 14.7502 6.57554 14.2874 6.69422 13.7814C6.87904 12.9936 6.87904 12.1737 6.69422 11.3858C6.57554 10.8799 6.31795 10.4171 5.95046 10.0496C5.58297 9.68208 5.12017 9.42449 4.6142 9.30581ZM13.7814 0.138593C12.9936 -0.0461926 12.1737 -0.0461926 11.3858 0.138593C10.8798 0.257272 10.4171 0.514861 10.0496 0.882352C9.68207 1.24984 9.42448 1.71264 9.3058 2.21862C9.12099 3.00645 9.12099 3.82637 9.3058 4.6142C9.42448 5.12018 9.68207 5.58297 10.0496 5.95046C10.4171 6.31796 10.8798 6.57554 11.3858 6.69422C12.1737 6.87904 12.9936 6.87904 13.7814 6.69422C14.2874 6.57554 14.7502 6.31796 15.1177 5.95046C15.4852 5.58297 15.7428 5.12018 15.8614 4.6142C16.0462 3.82636 16.0462 3.00646 15.8614 2.21862C15.7428 1.71264 15.4852 1.24984 15.1177 0.882352C14.7502 0.514861 14.2874 0.257272 13.7814 0.138593ZM13.7814 9.30581C12.9936 9.12099 12.1737 9.12099 11.3858 9.30581C10.8798 9.42449 10.4171 9.68208 10.0496 10.0496C9.68207 10.4171 9.42448 10.8799 9.3058 11.3858C9.12099 12.1737 9.12099 12.9936 9.3058 13.7814C9.42448 14.2874 9.68207 14.7502 10.0496 15.1177C10.4171 15.4852 10.8798 15.7428 11.3858 15.8614C12.1737 16.0462 12.9936 16.0462 13.7814 15.8614C14.2874 15.7428 14.7502 15.4852 15.1177 15.1177C15.4852 14.7502 15.7428 14.2874 15.8614 13.7814C16.0462 12.9936 16.0462 12.1737 15.8614 11.3858C15.7428 10.8799 15.4852 10.4171 15.1177 10.0496C14.7502 9.68208 14.2874 9.42449 13.7814 9.30581Z"/>
                                </g>
                            </svg>