<svg class="rotating-icon" width="98" height="99" viewBox="0 0 98 99" xmlns="http://www.w3.org/2000/svg">
                                            <g>
                                                <path d="M48.9999 0H55.3925L52.1962 24.5284L48.9999 49.0607L45.8037 24.5284L42.6074 0H48.9999Z"/>
                                                <path d="M48.9999 98.0419H42.6074L45.8037 73.5096L48.9999 48.9772L52.1962 73.5096L55.3925 98.0419H48.9999Z"/>
                                                <path d="M98.0002 49.021V55.4162L73.4781 52.2186L48.9561 49.021L73.4781 45.8234L98.0002 42.6218V49.021Z"/>
                                                <path d="M0 49.021V42.6217L24.5221 45.8233L49.0401 49.021L24.5221 52.2186L0 55.4162V49.021Z"/>
                                                <path d="M83.6503 14.3558L88.1688 18.8801L68.5702 33.9666L48.9717 49.049L64.0478 29.4422L79.1279 9.83142L83.6503 14.3558Z"/>
                                                <path d="M14.3485 83.6825L9.83008 79.1621L29.4287 64.0757L49.0272 48.9893L33.9511 68.6L18.871 88.2069L14.3485 83.6825Z"/>
                                                <path d="M83.6503 83.6825L79.1279 88.2069L64.0478 68.6L48.9717 48.9893L68.5702 64.0757L88.1688 79.1621L83.6503 83.6825Z"/>
                                                <path d="M14.3485 14.3558L18.871 9.83142L33.9511 29.4422L49.0272 49.049L29.4287 33.9666L9.83008 18.8801L14.3485 14.3558Z"/>
                                            </g>
                                        </svg>