<svg width="50" height="50" viewBox="0 0 50 50" xmlns="http://www.w3.org/2000/svg">
                                        <g>
                                            <path d="M39.9843 33.0547C40.6953 33.2813 41.4609 32.8906 41.6874 32.1875L42.9296 28.375C43.0624 27.9688 42.8359 27.5234 42.4296 27.3906L40.7031 26.8281C40.7734 26.2188 40.8124 25.6094 40.8124 25C40.8124 24.3906 40.7734 23.7812 40.7031 23.1719L41.8828 22.7891C42.2265 22.6797 42.5078 22.4375 42.6718 22.1172C42.8359 21.7969 42.8671 21.4297 42.7499 21.0859L41.6874 17.8203C41.4609 17.1094 40.6874 16.7188 39.9843 16.9531L38.8046 17.3359C38.2031 16.2734 37.4843 15.2734 36.6562 14.375L37.3906 13.3672C37.8281 12.7656 37.6953 11.9141 37.0937 11.4766L34.3124 9.45313C33.7109 9.01563 32.8593 9.14844 32.4218 9.75L31.6874 10.7578C30.5703 10.2422 29.4062 9.85937 28.2109 9.625V8.38281C28.2109 7.63281 27.6015 7.03125 26.8593 7.03125H23.4218C22.6718 7.03125 22.0703 7.64062 22.0703 8.38281V9.625C20.8749 9.85937 19.7109 10.2422 18.5937 10.7578L17.8593 9.75C17.4218 9.14844 16.5781 9.01563 15.9687 9.45313L13.1874 11.4766C12.8906 11.6875 12.7031 12 12.6484 12.3594C12.5937 12.7188 12.6796 13.0781 12.8906 13.3672L13.6171 14.375C12.789 15.2734 12.0703 16.2656 11.4687 17.3359L10.289 16.9531C9.94526 16.8438 9.57807 16.8672 9.25776 17.0312C8.93745 17.1953 8.69526 17.4766 8.58588 17.8203L7.52338 21.0859C7.41401 21.4297 7.43745 21.7969 7.60151 22.1172C7.76557 22.4375 8.04682 22.6797 8.39057 22.7891L9.57026 23.1719C9.49995 23.7812 9.46088 24.3906 9.46088 25C9.46088 25.6094 9.49995 26.2188 9.57026 26.8281L7.8437 27.3906C7.43745 27.5234 7.21088 27.9688 7.3437 28.375L8.58588 32.1875C8.69526 32.5312 8.93745 32.8125 9.25776 32.9766C9.57807 33.1406 9.94526 33.1719 10.289 33.0547L11.4687 32.6719C12.0703 33.7422 12.789 34.7344 13.6171 35.6328L12.8906 36.6406C12.6796 36.9375 12.5937 37.2891 12.6484 37.6484C12.7031 38.0078 12.8984 38.3203 13.1874 38.5312L15.9687 40.5547C16.5703 40.9922 17.4218 40.8594 17.8593 40.2578L18.5937 39.25C19.7109 39.7656 20.8749 40.1484 22.0703 40.3828V41.625C22.0703 42.375 22.6796 42.9766 23.4218 42.9766H26.8593C27.6093 42.9766 28.2109 42.3672 28.2109 41.625V40.3828C29.4062 40.1484 30.5703 39.7656 31.6874 39.25L32.414 40.2578C32.8515 40.8594 33.7031 41 34.3046 40.5547L37.0859 38.5312C37.6874 38.0938 37.8281 37.2422 37.3828 36.6406L36.6562 35.6328C37.4843 34.7344 38.2031 33.7422 38.8046 32.6719L39.9843 33.0547ZM37.5156 31.7734C36.9374 32.8281 36.2265 33.8047 35.4062 34.6797C34.9609 35.1562 34.9062 35.8828 35.289 36.4062L35.9999 37.3828L33.5546 39.1562L32.8437 38.1797C32.4609 37.6562 31.7578 37.4766 31.164 37.7578C30.0781 38.2734 28.9296 38.6484 27.7578 38.8672C27.1171 38.9844 26.6484 39.5469 26.6484 40.1953V41.3984H23.6249V40.1953C23.6249 39.5469 23.1562 38.9844 22.5156 38.8672C21.3437 38.6484 20.1953 38.2734 19.1015 37.7578C18.5078 37.4766 17.8046 37.6562 17.4218 38.1797L16.7109 39.1562L14.2656 37.3828L14.9765 36.4062C15.3593 35.8828 15.3124 35.1562 14.8593 34.6797C14.039 33.8047 13.3281 32.8281 12.7499 31.7734C12.4374 31.2031 11.7578 30.9297 11.1484 31.1328L9.99995 31.5078L9.07026 28.6328L10.2187 28.2578C10.8359 28.0547 11.2265 27.4453 11.1406 26.7891C11.0624 26.1953 11.0234 25.5859 11.0234 24.9922C11.0234 24.3984 11.0624 23.7969 11.1406 23.1953C11.2265 22.5469 10.8359 21.9297 10.2187 21.7266L9.07026 21.3516L9.99995 18.4766L11.1484 18.8516C11.7656 19.0547 12.4374 18.7812 12.7578 18.2109C13.3359 17.1562 14.0468 16.1797 14.8671 15.3047C15.3203 14.8281 15.3671 14.1016 14.9843 13.5781L14.2734 12.6016L16.7187 10.8281L17.4296 11.8047C17.8124 12.3281 18.5156 12.5078 19.1093 12.2266C20.1953 11.7109 21.3437 11.3359 22.5156 11.1172C23.1562 11 23.6249 10.4375 23.6249 9.78906V8.58594H26.6484V9.78906C26.6484 10.4375 27.1171 11 27.7578 11.1172C28.9296 11.3359 30.0781 11.7109 31.1718 12.2266C31.7656 12.5078 32.4687 12.3281 32.8515 11.8047L33.5624 10.8281L36.0078 12.6016L35.2968 13.5781C34.914 14.1016 34.9609 14.8281 35.414 15.3047C36.2343 16.1797 36.9453 17.1562 37.5234 18.2109C37.8359 18.7812 38.5156 19.0547 39.1249 18.8516L40.2734 18.4766L41.2109 21.3516L40.0624 21.7266C39.4453 21.9297 39.0546 22.5391 39.1406 23.1953C39.2187 23.7891 39.2578 24.3984 39.2578 24.9922C39.2578 25.5859 39.2187 26.1875 39.1406 26.7891C39.0546 27.4375 39.4453 28.0547 40.0624 28.2578L41.2109 28.6328L40.2734 31.5078L39.1249 31.1328C38.5078 30.9297 37.8359 31.2031 37.5234 31.7734H37.5156Z"/>
                                            <path d="M25 13.2812C18.5391 13.2812 13.2812 18.5391 13.2812 25C13.2812 31.4609 18.5391 36.7188 25 36.7188C31.4609 36.7188 36.7188 31.4609 36.7188 25C36.7188 18.5391 31.4609 13.2812 25 13.2812ZM25 35.1562C19.3984 35.1562 14.8438 30.6016 14.8438 25C14.8438 19.3984 19.3984 14.8438 25 14.8438C30.6016 14.8438 35.1562 19.3984 35.1562 25C35.1562 30.6016 30.6016 35.1562 25 35.1562Z"/>
                                            <path d="M26.7969 23.0469H27.9688V26.9531H26.7969V28.5156H30.7031V26.9531H29.5312V23.0469H30.7031V21.4844H26.7969V23.0469Z"/>
                                            <path d="M23.0469 21.4844H21.4844C21.1172 21.4844 20.8047 21.7422 20.7188 22.0938L19.2891 28.5156H20.8906L21.2344 26.9531H23.2812L23.625 28.5156H25.2266L23.7969 22.0938C23.7187 21.7344 23.3984 21.4844 23.0312 21.4844H23.0469ZM21.5937 25.3906L22.1172 23.0469H22.4297L22.9531 25.3906H21.6016H21.5937Z"/>
                                            <path d="M36.3672 44.6016C27.7422 49.6094 16.8594 48.336 9.58597 41.5782L11.0782 41.7891L11.2969 40.2422L7.42972 39.6875C7.17972 39.6563 6.93753 39.7344 6.76566 39.9063C6.59378 40.0782 6.50785 40.3282 6.54691 40.5703L7.1016 44.4375L8.64847 44.2188L8.42191 42.6407C13.0235 46.961 18.9922 49.211 25.0235 49.211C29.1875 49.211 33.375 48.1407 37.1563 45.9453L36.375 44.5938L36.3672 44.6016Z"/>
                                            <path d="M46.078 13.0547L44.7187 13.8281C49.5858 22.4141 48.2655 33.2109 41.5858 40.4141L41.7968 38.9219L40.2499 38.7031L39.6952 42.5703C39.664 42.8125 39.7421 43.0625 39.914 43.2344C40.0624 43.3828 40.2577 43.4609 40.4687 43.4609H40.578L44.4452 42.9062L44.2265 41.3594L42.6249 41.5859C49.8593 33.8906 51.3046 22.2812 46.078 13.0625V13.0547Z"/>
                                            <path d="M13.0547 3.92188L13.8281 5.28126C22.4141 0.41407 33.2109 1.73438 40.4141 8.42188L38.9219 8.21095L38.7031 9.75782L42.5703 10.3125C42.5703 10.3125 42.6406 10.3125 42.6797 10.3125C42.8828 10.3125 43.0859 10.2344 43.2344 10.0859C43.4062 9.91407 43.4922 9.66407 43.4531 9.42188L42.8984 5.5547L41.3516 5.77345L41.5781 7.37501C33.8906 0.140633 22.2734 -1.30468 13.0547 3.92188Z"/>
                                            <path d="M8.20313 11.0782L9.75001 11.2969L10.3047 7.42972C10.3359 7.18753 10.2578 6.93753 10.0859 6.76566C9.91407 6.59378 9.67188 6.50785 9.42188 6.54691L5.5547 7.1016L5.77345 8.64847L7.37501 8.42191C0.140633 16.1094 -1.30468 27.7266 3.92188 36.9453L5.28126 36.1719C0.41407 27.586 1.73438 16.7891 8.42188 9.58597L8.21095 11.0782H8.20313Z"/>
                                        </g>
                                    </svg>