<svg width="50" height="50" viewBox="0 0 50 50" xmlns="http://www.w3.org/2000/svg">
                                        <path d="M32.8125 14.9617C32.7867 14.9773 32.757 14.9813 32.7312 15L31.171 16.1719C30.8265 16.4313 30.757 16.9211 31.0156 17.2656C31.1687 17.4703 31.4039 17.5773 31.6414 17.5773C31.8046 17.5773 31.9695 17.5266 32.1101 17.4211L32.164 17.3805C31.4023 19.9742 29.0054 21.875 26.1695 21.875C24.275 21.875 22.5046 21.0289 21.3101 19.5539C21.039 19.2187 20.546 19.1672 20.2117 19.4383C19.8757 19.7102 19.8242 20.2023 20.096 20.5367C21.5882 22.3797 23.8015 23.4375 26.1695 23.4375C29.789 23.4375 32.8328 20.9586 33.7156 17.6125L33.75 17.6586C33.9031 17.8633 34.1382 17.9703 34.3757 17.9703C34.539 17.9703 34.7039 17.9195 34.8445 17.8141C35.189 17.5547 35.2585 17.0648 35 16.7203L33.8257 15.1562C33.814 15.1406 33.7976 15.1344 33.7851 15.1203C33.7492 15.0789 33.7085 15.0461 33.6656 15.0133C33.6265 14.9844 33.5898 14.9555 33.5476 14.9336C33.5039 14.9117 33.457 14.8992 33.4085 14.8852C33.3578 14.8703 33.3085 14.8578 33.2562 14.8539C33.2367 14.8539 33.2195 14.8438 33.2007 14.8438C33.1679 14.8438 33.1406 14.8586 33.1093 14.8617C33.0578 14.868 33.0078 14.8758 32.9578 14.8922C32.9054 14.9102 32.8601 14.9344 32.8125 14.9617Z"/>
                                        <path d="M47.2625 21.0922C47.2625 17.0367 44.154 13.6945 40.1938 13.3188C39.8032 5.91094 33.6727 0 26.1696 0C20.3555 0 15.3532 3.54766 13.2157 8.59219H12.8938C7.2938 8.59219 2.73755 13.1492 2.73755 18.75C2.73755 22.9656 5.31958 26.5867 8.98442 28.1211V30.5164C5.90708 30.9031 3.51567 33.5312 3.51489 36.7125C3.51567 40.1586 6.32036 42.9625 9.76567 42.9625C13.2118 42.9625 16.0149 40.1586 16.0149 36.7125C16.0149 33.5312 13.6243 30.9031 10.5469 30.5164V28.6211C11.3016 28.8008 12.0852 28.9062 12.8938 28.9062H23.829V34.4148C19.8868 34.8086 16.7977 38.1437 16.7977 42.1875C16.7977 46.4953 20.3024 50 24.6102 50C28.918 50 32.4227 46.4953 32.4227 42.1875C32.4227 38.1437 29.3336 34.8086 25.3915 34.4148V28.9062H38.6688V30.5172C35.5915 30.9039 33.2 33.532 33.1993 36.7133C33.2 40.1594 36.0047 42.9633 39.45 42.9633C42.8961 42.9633 45.6993 40.1594 45.6993 36.7133C45.6993 33.532 43.3086 30.9039 40.2313 30.5172V28.8672C44.1735 28.4734 47.2625 25.1375 47.2625 21.0922ZM14.4524 36.7125C14.4524 39.2977 12.35 41.4 9.76567 41.4C7.18052 41.4 5.07817 39.2977 5.07739 36.7125C5.07817 34.1273 7.18052 32.025 9.76567 32.025C12.35 32.025 14.4524 34.1281 14.4524 36.7125ZM30.8602 42.1875C30.8602 45.6336 28.0563 48.4375 24.6102 48.4375C21.1641 48.4375 18.3602 45.6336 18.3602 42.1875C18.3602 38.7414 21.1641 35.9375 24.6102 35.9375C28.0563 35.9375 30.8602 38.7414 30.8602 42.1875ZM4.30005 18.75C4.30005 14.0867 8.03442 10.2867 12.6688 10.1664C12.311 11.4055 12.1079 12.7102 12.1079 14.0625C12.1079 14.4945 12.4571 14.8438 12.8891 14.8438C13.3211 14.8438 13.6704 14.4945 13.6704 14.0625C13.6704 7.17031 19.2774 1.5625 26.1696 1.5625C33.0618 1.5625 38.6688 7.17031 38.6688 14.0625C38.6688 14.4945 39.018 14.8438 39.45 14.8438H39.4508C42.8969 14.8438 45.7 17.6469 45.7 21.0922C45.7 24.5391 42.8969 27.3438 39.4508 27.3438H12.8938C8.15474 27.3438 4.30005 23.4883 4.30005 18.75ZM44.1368 36.7125C44.1368 39.2977 42.0344 41.4 39.45 41.4C36.8649 41.4 34.7625 39.2977 34.7618 36.7125C34.7625 34.1273 36.8649 32.025 39.45 32.025C42.0344 32.025 44.1368 34.1281 44.1368 36.7125Z"/>
                                        <path d="M26.4 44.2992C26.5523 44.4515 26.7523 44.5281 26.9523 44.5281C27.1523 44.5281 27.3523 44.4515 27.5047 44.2992L29.0617 42.7429C29.0633 42.7414 29.0648 42.7414 29.0664 42.7398C29.2188 42.5875 29.2953 42.3867 29.2953 42.1867C29.2953 41.9867 29.2188 41.7859 29.0664 41.6335C29.0648 41.632 29.0633 41.632 29.0617 41.6304L27.5047 40.0726C27.1992 39.7671 26.7055 39.7671 26.4 40.0726C26.0945 40.3781 26.0945 40.8718 26.4 41.1773L27.4086 42.1867L26.4 43.1945C26.0945 43.5 26.0945 43.9945 26.4 44.2992Z"/>
                                        <path d="M22.8189 40.0726C22.5134 39.7671 22.0197 39.7671 21.7142 40.0726L20.1611 41.6273C20.158 41.6304 20.1541 41.6304 20.1517 41.6335C19.9986 41.7867 19.9228 41.9867 19.9236 42.1875C19.9228 42.3882 19.9986 42.589 20.1517 42.7414C20.1541 42.7445 20.158 42.7445 20.1611 42.7476L21.7142 44.3007C21.8666 44.4531 22.0666 44.5296 22.2666 44.5296C22.4666 44.5296 22.6666 44.4531 22.8189 44.3007C23.1244 43.9953 23.1244 43.5015 22.8189 43.196L21.8103 42.1875L22.8189 41.1773C23.1244 40.8718 23.1244 40.3773 22.8189 40.0726Z"/>
                                        <path d="M23.6399 46.0719C23.7032 46.0883 23.7672 46.0954 23.8297 46.0954C24.1797 46.0954 24.4977 45.8586 24.5868 45.5032L26.1485 39.2516C26.2539 38.8336 25.9993 38.4094 25.5797 38.3047C25.1594 38.1977 24.7368 38.4539 24.6329 38.8735L23.0711 45.125C22.9657 45.543 23.2211 45.9672 23.6399 46.0719Z"/>
                                        <path d="M41.2375 38.0524C41.3899 38.2047 41.5899 38.2813 41.7899 38.2813C41.9899 38.2813 42.1899 38.2047 42.3422 38.0524L43.1196 37.2758C43.1211 37.2742 43.1227 37.2742 43.1243 37.2727C43.2766 37.1203 43.3532 36.9196 43.3532 36.7196C43.3532 36.5196 43.2766 36.3188 43.1243 36.1664C43.1227 36.1649 43.1211 36.1649 43.1196 36.1633L42.3461 35.3899C42.0407 35.0844 41.5469 35.0844 41.2415 35.3899C40.936 35.6953 40.936 36.1891 41.2415 36.4946L41.4665 36.7196L41.2375 36.9477C40.9329 37.2524 40.9329 37.7469 41.2375 38.0524Z"/>
                                        <path d="M37.6603 35.3867C37.3548 35.0812 36.8611 35.0812 36.5556 35.3867L35.7783 36.1633C35.7767 36.1648 35.7751 36.1648 35.7736 36.1664C35.6212 36.3187 35.5447 36.5195 35.5447 36.7195C35.5447 36.9195 35.6212 37.1203 35.7736 37.2726C35.7751 37.2742 35.7767 37.2742 35.7783 37.2758L36.5556 38.0523C36.708 38.2047 36.908 38.2812 37.108 38.2812C37.308 38.2812 37.508 38.2047 37.6603 38.0523C37.9658 37.7469 37.9658 37.2523 37.6603 36.9476L37.4322 36.7195L37.6603 36.4914C37.9658 36.1867 37.9658 35.6922 37.6603 35.3867Z"/>
                                        <path d="M39.0805 34.964L38.3008 38.0874C38.1969 38.5062 38.4508 38.9304 38.8704 39.0351C38.9337 39.0507 38.9977 39.0578 39.0602 39.0578C39.4102 39.0578 39.7282 38.8203 39.818 38.4656L40.5977 35.3421C40.7016 34.9234 40.4477 34.4992 40.0282 34.3945C39.6079 34.2921 39.1852 34.546 39.0805 34.964Z"/>
                                        <path d="M11.5531 38.0524C11.7054 38.2047 11.9054 38.2813 12.1054 38.2813C12.3054 38.2813 12.5054 38.2047 12.6578 38.0524L13.4351 37.2758C13.4367 37.2742 13.4382 37.2742 13.4398 37.2727C13.5921 37.1203 13.6687 36.9196 13.6687 36.7196C13.6687 36.5196 13.5921 36.3188 13.4398 36.1664C13.4382 36.1649 13.4367 36.1649 13.4351 36.1633L12.6617 35.3899C12.3562 35.0844 11.8625 35.0844 11.557 35.3899C11.2515 35.6953 11.2515 36.1891 11.557 36.4946L11.782 36.7196L11.5531 36.9477C11.2476 37.2524 11.2476 37.7469 11.5531 38.0524Z"/>
                                        <path d="M7.97573 35.3867C7.67026 35.0812 7.17651 35.0812 6.87104 35.3867L6.0937 36.1633C6.09214 36.1648 6.09058 36.1648 6.08901 36.1664C5.93667 36.3187 5.86011 36.5195 5.86011 36.7195C5.86011 36.9195 5.93667 37.1203 6.08901 37.2726C6.09058 37.2742 6.09214 37.2742 6.0937 37.2758L6.87104 38.0523C7.02339 38.2047 7.22339 38.2812 7.42339 38.2812C7.62339 38.2812 7.82339 38.2047 7.97573 38.0523C8.2812 37.7469 8.2812 37.2523 7.97573 36.9476L7.74761 36.7195L7.97573 36.4914C8.2812 36.1867 8.2812 35.6922 7.97573 35.3867Z"/>
                                        <path d="M9.39621 34.964L8.61652 38.0874C8.51261 38.5062 8.76652 38.9304 9.18605 39.0351C9.24933 39.0507 9.31339 39.0578 9.37589 39.0578C9.72589 39.0578 10.0439 38.8203 10.1337 38.4656L10.9134 35.3421C11.0173 34.9234 10.7634 34.4992 10.3439 34.3945C9.92589 34.2921 9.50089 34.546 9.39621 34.964Z"/>
                                        <path d="M18.514 16.0969L18.5156 16.0977V16.0984C18.5257 16.1117 18.5406 16.1156 18.5515 16.1281C18.6046 16.1914 18.6687 16.2406 18.7398 16.2836C18.7601 16.2969 18.7749 16.3195 18.796 16.3305C18.8023 16.3336 18.8093 16.332 18.8148 16.3352C18.914 16.3813 19.0226 16.4102 19.139 16.4102H19.1398C19.221 16.4102 19.3031 16.3969 19.3827 16.3711C19.3906 16.3687 19.396 16.3633 19.4023 16.3609C19.407 16.3594 19.4109 16.3555 19.4156 16.3539C19.4468 16.3422 19.4726 16.325 19.5015 16.3094C19.5367 16.2906 19.5749 16.2789 19.6077 16.2539L19.6093 16.2523L21.1695 15.0773C21.514 14.818 21.5827 14.3281 21.3234 13.9836C21.0648 13.6406 20.5765 13.5703 20.2296 13.8297L20.1773 13.8695C20.9398 11.2781 23.3359 9.37891 26.171 9.37891C28.0656 9.37891 29.8359 10.225 31.0304 11.7C31.3015 12.0352 31.7937 12.0867 32.1288 11.8156C32.4648 11.5437 32.5163 11.0516 32.2445 10.7172C30.7523 8.87422 28.539 7.81641 26.171 7.81641C22.5523 7.81641 19.5093 10.293 18.6257 13.6375L18.5945 13.5961C18.3367 13.2523 17.846 13.1797 17.5007 13.4391C17.1562 13.6977 17.0851 14.1875 17.3437 14.5328L18.514 16.0969Z"/>
                                    </svg>