<svg width="50" height="50" viewBox="0 0 50 50" xmlns="http://www.w3.org/2000/svg" class="">
                                        <path d="M48.1158 26.5422L44.2675 17.1029C44.1223 16.8125 43.9044 16.6672 43.614 16.6672H40.0561V15.215C40.0561 14.852 39.8383 14.5615 39.4752 14.4889L37.0065 14.0533C36.716 13.0367 36.353 12.0928 35.8447 11.2215L37.2969 9.11579C37.5147 8.82535 37.4421 8.4623 37.2243 8.17186L34.0295 4.9044C33.8116 4.68657 33.376 4.61396 33.0855 4.83179L30.9798 6.28399C30.1085 5.77572 29.1646 5.41267 28.148 5.12223L27.7124 2.58088C27.6398 2.21783 27.3493 2 26.9863 2H22.4118C22.0488 2 21.7584 2.21783 21.6857 2.58088L21.2501 5.12223C20.2335 5.34006 19.2896 5.70311 18.3457 6.21138L16.24 4.75918C15.9496 4.54135 15.5865 4.61396 15.2961 4.83179L12.0286 8.02664C11.8108 8.24447 11.7382 8.68013 11.956 8.97057L13.4082 11.0763C12.8999 11.9476 12.4643 12.8915 12.1738 13.908L9.63248 14.3437C9.26943 14.4163 9.0516 14.7068 9.0516 15.0698V16.7398H5.56631C5.27587 16.7398 4.98543 16.8851 4.91282 17.1755L1.06449 26.5422C0.84666 27.0505 1.20971 27.5587 1.71798 27.5587H5.34848V43.7508C5.34848 46.2195 7.38157 48.18 9.7777 48.18H39.4026C41.8713 48.18 43.8318 46.1469 43.8318 43.7508V27.5587H47.4623C47.9706 27.5587 48.3336 27.0505 48.1158 26.5422ZM17.91 16.4494C18.4183 13.1819 21.1775 10.7132 24.5902 10.7132C28.0028 10.7132 30.762 13.1819 31.2703 16.4494H17.91ZM10.5764 15.6507L12.9725 15.215C13.263 15.1424 13.4808 14.9246 13.5534 14.7068C13.8439 13.545 14.2795 12.4558 14.933 11.4393C15.0782 11.2215 15.0782 10.8584 14.933 10.6406L13.5534 8.68013L15.9496 6.28399L17.91 7.66359C18.1279 7.8088 18.4183 7.8088 18.7087 7.66359C19.7253 7.01009 20.887 6.57443 21.9762 6.3566C22.2666 6.28399 22.4845 6.06616 22.5571 5.77572L22.9927 3.37959H26.3328L26.7685 5.84833C26.8411 6.13877 27.0589 6.3566 27.3493 6.42921C28.5111 6.71965 29.6002 7.15531 30.6168 7.8088C30.8346 7.95403 31.1977 7.95403 31.4155 7.8088L33.376 6.42921L35.7721 8.82535L34.3925 10.7858C34.2473 11.0036 34.2473 11.3667 34.3925 11.5845C35.046 12.6011 35.4817 13.7628 35.6995 14.852C35.7721 15.1424 35.9899 15.3603 36.2804 15.4329L38.6765 15.8685V16.4494H32.7951C32.2868 12.3832 28.8741 9.26101 24.6628 9.26101C20.4514 9.26101 17.0387 12.3832 16.5304 16.4494H10.649L10.5764 15.6507ZM42.3796 43.7508C42.3796 45.4208 41 46.7278 39.4026 46.7278H9.7777C8.10767 46.7278 6.80068 45.3482 6.80068 43.7508V27.5587H42.4522V43.7508H42.3796ZM2.80713 26.1065L6.07458 18.1194H43.1783L46.4458 26.1065H2.80713Z" class=""/>
                                        <path d="M21.105 39.0312L19.6528 43.6056C19.5802 43.896 19.6528 44.2591 19.9432 44.4043C20.2337 44.6221 20.5241 44.6221 20.8146 44.4043L24.6629 41.5725L28.5112 44.4043C28.7291 44.6221 29.0921 44.6221 29.3826 44.4043C29.673 44.1865 29.7456 43.896 29.673 43.6056L28.2208 39.0312L32.0691 36.1994C32.3596 35.9815 32.4322 35.6911 32.3596 35.4007C32.287 35.1102 31.9965 34.8924 31.6335 34.8924H26.7686L25.3164 30.318C25.2438 30.0275 24.9533 29.8097 24.5903 29.8097C24.2998 29.8097 24.0094 30.0275 23.8642 30.318L22.412 34.8924H17.6197C17.3293 34.8924 17.0388 35.1102 16.8936 35.4007C16.821 35.6911 16.8936 36.0542 17.1841 36.1994L21.105 39.0312ZM22.9203 36.3446C23.2107 36.3446 23.5011 36.1268 23.6464 35.8363L24.5903 32.9319L25.5342 35.8363C25.6068 36.1268 25.8973 36.3446 26.2603 36.3446H29.3099L26.8412 38.1599C26.5508 38.3777 26.4781 38.6681 26.5508 38.9586L27.4947 41.863L25.0259 40.0477C24.8807 39.9751 24.7355 39.9025 24.5903 39.9025C24.4451 39.9025 24.2998 39.9751 24.1546 40.0477L21.6859 41.863L22.6298 38.9586C22.7024 38.6681 22.6298 38.3051 22.3394 38.1599L19.8706 36.3446H22.9203Z"/>
                                    </svg>