<svg width="155" height="277" viewBox="0 0 155 277" fill="none" xmlns="http://www.w3.org/2000/svg">
                                        <path d="M-0.214844 7.7319C2.1558 -1.91071 15.8657 -1.91075 18.2363 7.7319L32.3809 65.2661C34.053 72.0679 41.7896 75.3571 47.8477 71.8413L101.651 40.6157C110.414 35.5302 119.987 45.8618 114.25 54.2124L82.3906 100.582C78.1412 106.766 81.5629 115.284 88.9102 116.809L146.73 128.811C156.822 130.906 156.822 145.319 146.73 147.415L88.9121 159.416C81.5644 160.942 78.1424 169.459 82.3926 175.644L114.241 221.989C119.979 230.339 110.406 240.671 101.643 235.585L47.8477 204.366C41.7895 200.85 34.0528 204.139 32.3809 210.941L18.2363 268.486C15.866 278.129 2.15547 278.129 -0.214844 268.486L-14.3604 210.939C-16.0324 204.138 -23.7681 200.849 -29.8262 204.364L-83.6484 235.593C-92.4118 240.678 -101.984 230.346 -96.2461 221.996L-64.3926 175.644C-60.1425 169.459 -63.5644 160.942 -70.9121 159.416L-128.73 147.415C-138.822 145.319 -138.822 130.906 -128.73 128.811L-70.9102 116.809C-63.5631 115.284 -60.1413 106.766 -64.3906 100.582L-96.2549 54.2046C-101.992 45.8544 -92.4201 35.5233 -83.6572 40.6079L-29.8252 71.8432C-23.7674 75.3578 -16.0316 72.0691 -14.3594 65.268L-0.214844 7.7319Z" stroke="#CFE4FF"/>
                                    </svg>