<svg width="50" height="50" viewBox="0 0 50 50" xmlns="http://www.w3.org/2000/svg">
                                        <path d="M22.4173 36.1464C21.4448 36.1464 20.6542 35.3572 20.6542 34.3847C20.6542 33.4123 21.4448 32.6224 22.4173 32.6224C23.3897 32.6224 24.1803 33.4123 24.1803 34.3847C24.1803 35.3572 23.3897 36.1464 22.4173 36.1464ZM22.4173 34.1066C22.3434 34.1066 22.2726 34.1359 22.2203 34.188C22.168 34.2402 22.1386 34.3109 22.1384 34.3847C22.1384 34.6916 22.6961 34.6916 22.6961 34.3847C22.6959 34.3109 22.6665 34.2402 22.6142 34.188C22.5619 34.1359 22.4911 34.1066 22.4173 34.1066ZM29.044 36.1464C28.0723 36.1464 27.2824 35.3572 27.2824 34.3847C27.2824 33.4123 28.0723 32.6224 29.0448 32.6224C30.0172 32.6224 30.8064 33.4123 30.8064 34.3847C30.8064 35.3572 30.0158 36.1464 29.044 36.1464ZM29.044 34.1066C28.9703 34.1066 28.8995 34.1359 28.8474 34.1881C28.7952 34.2402 28.7659 34.311 28.7659 34.3847C28.7659 34.6916 29.3229 34.6916 29.3229 34.3847C29.3229 34.311 29.2936 34.2402 29.2414 34.1881C29.1893 34.1359 29.1178 34.1066 29.044 34.1066ZM34.5949 19.2251C34.4342 19.0144 34.2269 18.8437 33.9892 18.7266C33.7515 18.6095 33.4899 18.5491 33.225 18.5502H16.3662L15.9278 16.9079C15.8191 16.5019 15.5795 16.1431 15.2462 15.8871C14.9129 15.6311 14.5045 15.4922 14.0842 15.4919H12.978C12.7813 15.4919 12.5927 15.5701 12.4536 15.7092C12.3144 15.8483 12.2363 16.037 12.2363 16.2337C12.2363 16.4304 12.3144 16.6191 12.4536 16.7582C12.5927 16.8973 12.7813 16.9754 12.978 16.9754H14.0842C14.2761 16.9754 14.4436 17.1048 14.4939 17.2909L18.038 30.5416C18.1649 31.0143 18.444 31.432 18.8323 31.7301C19.2205 32.0282 19.6961 32.1899 20.1856 32.1904H32.0807C32.2775 32.1904 32.4663 32.1122 32.6055 31.9731C32.7446 31.8339 32.8228 31.6452 32.8228 31.4483C32.8228 31.2515 32.7446 31.0628 32.6055 30.9236C32.4663 30.7844 32.2775 30.7062 32.0807 30.7062H20.1856C19.8514 30.7062 19.5574 30.4806 19.4711 30.1586L19.2009 29.1473H30.3687C31.0234 29.1465 31.6596 28.93 32.1789 28.5312C32.6982 28.1325 33.0716 27.5738 33.2415 26.9415L34.8946 20.7222C34.9634 20.4664 34.9722 20.1982 34.9202 19.9385C34.8682 19.6788 34.7569 19.4346 34.5949 19.2251ZM33.4183 20.1293C33.4456 20.1652 33.4873 20.2392 33.46 20.3413L32.7247 23.107H30.1186L30.5318 20.0344H33.225C33.3299 20.0344 33.3903 20.0933 33.4183 20.1293ZM28.6221 23.107H25.8952V20.0344H29.0361L28.6221 23.107ZM24.4118 20.0344V23.107H21.6877L21.2709 20.0344H24.4118ZM19.7737 20.0344L20.1899 23.107H17.5888L16.7658 20.0344H19.7737ZM20.3911 24.5912L20.8073 27.6631H18.8092L17.9862 24.5912H20.3911ZM21.889 24.5912H24.4118V27.6631H22.3044L21.889 24.5912ZM25.8952 27.6631V24.5912H28.4223L28.0083 27.6631H25.8952ZM30.3687 27.6631H29.5062L29.9195 24.5912H32.3308L31.8076 26.5591C31.7227 26.8756 31.5359 27.1552 31.276 27.3548C31.0162 27.5544 30.6978 27.6627 30.3701 27.6631H30.3687ZM14.5665 7.40755C14.5665 7.22322 14.4932 7.04644 14.3629 6.91609C14.2325 6.78575 14.0558 6.71253 13.8714 6.71253H6.23841C6.05408 6.71253 5.8773 6.78575 5.74696 6.91609C5.61662 7.04644 5.54339 7.22322 5.54339 7.40755C5.54339 7.59188 5.61662 7.76866 5.74696 7.899C5.8773 8.02934 6.05408 8.10257 6.23841 8.10257H13.8714C14.0558 8.10257 14.2325 8.02934 14.3629 7.899C14.4932 7.76866 14.5665 7.59188 14.5665 7.40755ZM35.5278 7.40755C35.5278 7.60427 35.4497 7.79293 35.3106 7.93204C35.1714 8.07114 34.9828 8.14929 34.7861 8.14929C34.5893 8.14929 34.4007 8.07114 34.2616 7.93204C34.1225 7.79293 34.0443 7.60427 34.0443 7.40755C34.0443 7.21083 34.1225 7.02216 34.2616 6.88306C34.4007 6.74396 34.5893 6.66581 34.7861 6.66581C34.9828 6.66581 35.1714 6.74396 35.3106 6.88306C35.4497 7.02216 35.5278 7.21083 35.5278 7.40755ZM37.8472 6.66581C37.6504 6.66581 37.4616 6.74399 37.3224 6.88316C37.1833 7.02233 37.1051 7.21109 37.1051 7.40791C37.1051 7.60472 37.1833 7.79348 37.3224 7.93265C37.4616 8.07182 37.6504 8.15001 37.8472 8.15001C38.044 8.15001 38.2327 8.07182 38.3719 7.93265C38.5111 7.79348 38.5893 7.60472 38.5893 7.40791C38.5893 7.21109 38.5111 7.02233 38.3719 6.88316C38.2327 6.74399 38.044 6.66581 37.8472 6.66581ZM40.9083 6.66581C40.7115 6.66581 40.5227 6.74399 40.3835 6.88316C40.2444 7.02233 40.1662 7.21109 40.1662 7.40791C40.1662 7.60472 40.2444 7.79348 40.3835 7.93265C40.5227 8.07182 40.7115 8.15001 40.9083 8.15001C41.1051 8.15001 41.2939 8.07182 41.433 7.93265C41.5722 7.79348 41.6504 7.60472 41.6504 7.40791C41.6504 7.21109 41.5722 7.02233 41.433 6.88316C41.2939 6.74399 41.1051 6.66581 40.9083 6.66581ZM47.456 39.0882L45.1805 37.1699C45.1819 37.1246 45.1891 37.0793 45.1891 37.0333V8.04651C45.1891 5.81841 43.3707 4 41.1426 4H6.04651C3.81841 4 2 5.81841 2 8.04651V37.0333C2 39.2614 3.81841 41.0798 6.04651 41.0798H37.1953L37.196 43.8592C37.196 44.4579 37.5324 44.9869 38.0743 45.2406C38.6119 45.4907 39.2365 45.4131 39.6958 45.0322L41.0858 43.8764L41.8592 45.5389C42.0985 46.0578 42.5276 46.4517 43.0638 46.6472C43.3277 46.7437 43.608 46.7872 43.8887 46.7752C44.1694 46.7633 44.445 46.6961 44.6996 46.5775C44.9546 46.4596 45.1837 46.2924 45.3737 46.0856C45.5637 45.8787 45.7108 45.6362 45.8065 45.3721C45.9037 45.1086 45.9475 44.8284 45.9354 44.5479C45.9233 44.2673 45.8555 43.9919 45.7361 43.7377L44.9634 42.0738L46.7416 41.7561C47.0275 41.7063 47.2931 41.5754 47.5066 41.3789C47.7202 41.1824 47.8728 40.9286 47.9462 40.6479C48.0229 40.3683 48.0175 40.0725 47.9306 39.7959C47.8436 39.5193 47.6789 39.2736 47.456 39.0882ZM3.48061 8.04651C3.48061 6.63778 4.63059 5.48779 6.04651 5.48779H41.1426C42.5585 5.48779 43.7085 6.63778 43.7085 8.04651V9.32587H3.48061V8.04651ZM37.1931 33.7134L37.1946 39.5927H6.04651C5.36723 39.5927 4.71567 39.3234 4.23468 38.8437C3.75368 38.3641 3.48251 37.7133 3.48061 37.034V10.8144H43.7085V35.9293L39.6987 32.5484C39.4774 32.3599 39.2064 32.2393 38.9183 32.2011C38.6301 32.1628 38.3371 32.2085 38.0743 32.3327C37.81 32.4534 37.5861 32.648 37.4298 32.8929C37.2734 33.1379 37.1913 33.4228 37.1931 33.7134ZM46.4792 40.2957L43.7538 40.7823C43.6419 40.8022 43.5361 40.8476 43.4446 40.915C43.3531 40.9823 43.2782 41.0698 43.2258 41.1706C43.1735 41.2715 43.145 41.383 43.1426 41.4966C43.1401 41.6102 43.1638 41.7229 43.2119 41.8259L44.3906 44.3652C44.4271 44.4426 44.4478 44.5265 44.4516 44.612C44.4555 44.6975 44.4423 44.7829 44.4129 44.8633C44.353 45.0259 44.2317 45.1586 44.0751 45.2327C43.997 45.2689 43.9126 45.2894 43.8267 45.293C43.7407 45.2966 43.6549 45.2832 43.5741 45.2535C43.4928 45.2246 43.4182 45.1797 43.3546 45.1214C43.2911 45.0632 43.2398 44.9927 43.2039 44.9143L42.0252 42.3779C41.9654 42.2499 41.8703 42.1417 41.7512 42.0658C41.632 41.9899 41.4937 41.9496 41.3525 41.9495C41.1814 41.9495 41.0132 42.0084 40.8781 42.1205L38.6802 43.8592L38.742 33.6818L46.4994 40.2224L46.4792 40.2957Z"/>
                                    </svg>