<svg width="50" height="50" viewBox="0 0 50 50" xmlns="http://www.w3.org/2000/svg">
                                        <g>
                                            <path d="M24.6202 36.932C19.9804 36.932 16.2057 40.7064 16.2057 45.3459C16.2057 46.2565 16.7033 47.5251 19.0738 48.3978C20.5486 48.9409 22.5182 49.2399 24.62 49.2399C28.8082 49.2399 33.0343 48.0359 33.0343 45.346C33.0342 40.7065 29.2598 36.932 24.6202 36.932ZM24.62 47.8444C20.6842 47.8444 17.6012 46.747 17.6012 45.346C17.6012 41.476 20.7499 38.3276 24.6202 38.3276C28.4903 38.3276 31.6388 41.476 31.6388 45.346C31.6387 46.747 28.5558 47.8444 24.62 47.8444ZM24.6202 36.2721C26.9715 36.2721 28.8845 34.3593 28.8845 32.008C28.8845 29.657 26.9716 27.7444 24.6202 27.7444C22.2689 27.7444 20.356 29.657 20.356 32.008C20.356 34.3593 22.2689 36.2721 24.6202 36.2721ZM24.6202 29.1398C26.2021 29.1398 27.489 30.4265 27.489 32.008C27.489 33.5898 26.2021 34.8767 24.6202 34.8767C23.0384 34.8767 21.7515 33.5898 21.7515 32.008C21.7515 30.4265 23.0384 29.1398 24.6202 29.1398ZM9.16351 20.9464C9.28391 20.9464 9.40442 20.9153 9.51237 20.8529L17.9781 15.9652C18.194 15.8405 18.327 15.6101 18.327 15.3609V5.58542C18.327 5.33613 18.194 5.10578 17.9781 4.98118L9.51237 0.0934736C9.29647 -0.0311213 9.03054 -0.0311213 8.81464 0.0934736L0.348866 4.98118C0.133067 5.10588 0 5.33613 0 5.58542V15.3608C0 15.6101 0.132968 15.8405 0.348866 15.9651L8.81464 20.8528C8.92259 20.9152 9.043 20.9464 9.16351 20.9464ZM12.9166 9.11205L13.8761 8.55805V11.0197L12.9166 11.5738V9.11205ZM12.2189 7.90348L5.14856 3.82135L6.10804 3.26735L13.1783 7.34938L12.2189 7.90348ZM10.8233 8.70916L9.16351 9.66745L2.09319 5.58542L3.753 4.62713L10.8233 8.70916ZM9.86124 19.0401V10.876L11.5211 9.91763V12.7822C11.5211 13.0315 11.6541 13.2619 11.87 13.3865C11.978 13.4488 12.0985 13.48 12.2189 13.48C12.3393 13.48 12.4598 13.4489 12.5677 13.3865L14.9227 12.0267C15.1386 11.9021 15.2715 11.6717 15.2715 11.4224V7.75237L16.9314 6.79399V14.958L9.86124 19.0401ZM9.16351 1.50339L16.2338 5.58542L14.5738 6.5438L7.5036 2.46177L9.16351 1.50339ZM1.39546 6.79399L8.46577 10.876V19.0401L1.39546 14.958V6.79399ZM47.9861 7.06331C47.4951 7.06331 47.0895 6.79169 46.901 6.33687C46.7125 5.88195 46.8074 5.40301 47.1546 5.05574C47.6433 4.56693 47.6433 3.77142 47.1546 3.2825L45.9573 2.0852C45.7204 1.84847 45.4056 1.71799 45.0707 1.71799C44.7356 1.71799 44.4208 1.84847 44.184 2.0852C43.8368 2.43247 43.3579 2.52716 42.903 2.33877C42.4482 2.15029 42.1766 1.7447 42.1766 1.2537C42.1766 0.562249 41.6141 -0.00012207 40.9227 -0.00012207H39.2296C38.5382 -0.00012207 37.9757 0.562349 37.9757 1.2537C37.9757 1.7447 37.7041 2.15029 37.2493 2.33877C36.7944 2.52706 36.3155 2.43237 35.9683 2.0852C35.4794 1.59639 34.6838 1.59639 34.195 2.0852L32.9977 3.2825C32.5088 3.77142 32.5088 4.56693 32.9977 5.05584C33.3449 5.40291 33.4397 5.88185 33.2512 6.33687C33.0628 6.79169 32.6572 7.06331 32.1662 7.06331C31.4748 7.06331 30.9123 7.62578 30.9123 8.31714V10.0102C30.9123 10.7017 31.4748 11.2641 32.1662 11.2641C32.6572 11.2641 33.0628 11.5357 33.2512 11.9905C33.4397 12.4453 33.3448 12.9243 32.9977 13.2714C32.7609 13.5083 32.6304 13.8231 32.6304 14.1581C32.6304 14.4932 32.7609 14.8081 32.9977 15.0449L34.195 16.2422C34.6838 16.731 35.4794 16.731 35.9683 16.2422C36.316 15.8942 36.7952 15.7991 37.2498 15.9872C37.7043 16.1756 37.9757 16.5817 37.9757 17.0736C37.9757 17.765 38.5382 18.3274 39.2296 18.3274H40.9227C41.6141 18.3274 42.1766 17.7649 42.1766 17.0736C42.1766 16.5826 42.4482 16.177 42.903 15.9885C43.3579 15.8 43.8369 15.8949 44.184 16.242C44.4208 16.4788 44.7357 16.6093 45.0708 16.6093C45.4057 16.6093 45.7205 16.4788 45.9574 16.2421L47.1546 15.0448C47.3914 14.808 47.5219 14.4932 47.5219 14.158C47.5219 13.8232 47.3915 13.5083 47.1547 13.2713C46.8075 12.9243 46.7127 12.4453 46.9011 11.9904C47.0895 11.5355 47.4951 11.264 47.9862 11.264C48.6775 11.264 49.24 10.7015 49.24 10.0101V8.31714C49.2399 7.62578 48.6774 7.06331 47.9861 7.06331ZM47.8444 9.87238C46.8466 9.92411 45.9992 10.5211 45.6118 11.4566C45.2244 12.3922 45.4014 13.4136 46.0704 14.1556L45.0682 15.1578C44.326 14.4888 43.3046 14.3116 42.369 14.6993C41.4335 15.0868 40.8365 15.9342 40.7848 16.9319H39.3676C39.3159 15.9332 38.7191 15.0853 37.7838 14.698C36.8487 14.3104 35.8271 14.4881 35.0843 15.1577L34.0821 14.1555C34.7511 13.4134 34.9281 12.3921 34.5406 11.4565C34.1531 10.521 33.3057 9.92401 32.308 9.87228V8.45509C33.3058 8.40335 34.1532 7.8064 34.5406 6.87084C34.928 5.93528 34.7511 4.9139 34.0821 4.17181L35.0843 3.16967C35.8264 3.8386 36.8477 4.01562 37.7834 3.62818C38.7189 3.24064 39.3159 2.3933 39.3676 1.39554H40.7848C40.8365 2.3934 41.4335 3.24074 42.369 3.62818C43.3046 4.01562 44.3259 3.8387 45.0682 3.16967L46.0704 4.17191C45.4014 4.914 45.2244 5.93528 45.6119 6.87094C45.9993 7.8065 46.8467 8.40345 47.8445 8.45519V9.87238H47.8444ZM40.0762 4.3288C37.4103 4.3288 35.2413 6.49775 35.2413 9.16378C35.2413 11.8297 37.4103 13.9987 40.0762 13.9987C42.7422 13.9987 44.9111 11.8297 44.9111 9.16378C44.9111 6.49765 42.7421 4.3288 40.0762 4.3288ZM40.0762 12.6031C38.1798 12.6031 36.6368 11.0602 36.6368 9.16368C36.6368 7.26715 38.1797 5.72417 40.0762 5.72417C41.9727 5.72417 43.5156 7.26705 43.5156 9.16368C43.5156 11.0602 41.9727 12.6031 40.0762 12.6031ZM20.6294 10.4978C20.6294 10.1125 20.9418 9.80011 21.3272 9.80011H26.2282L25.7962 9.36812C25.5237 9.0956 25.5237 8.65384 25.7962 8.38133C26.0686 8.10901 26.5105 8.10901 26.7829 8.38133L28.406 10.0044C28.6786 10.277 28.6786 10.7187 28.406 10.9912L26.7829 12.6145C26.6467 12.7506 26.4681 12.8188 26.2895 12.8188C26.1109 12.8188 25.9324 12.7506 25.7961 12.6145C25.5236 12.3419 25.5236 11.9002 25.7961 11.6277L26.2281 11.1957H21.3271C20.9418 11.1956 20.6294 10.8833 20.6294 10.4978ZM40.7739 23.0562V39.0989C40.7739 39.4842 40.4615 39.7966 40.0762 39.7966H36.3336L36.7656 40.2286C37.0381 40.5011 37.0381 40.9429 36.7656 41.2154C36.6293 41.3515 36.4508 41.4197 36.2722 41.4197C36.0935 41.4197 35.915 41.3515 35.7788 41.2154L34.1556 39.5922C33.8831 39.3197 33.8831 38.878 34.1556 38.6055L35.7788 36.9823C36.0512 36.71 36.493 36.71 36.7655 36.9823C37.038 37.2548 37.038 37.6966 36.7655 37.9691L36.3335 38.4011H39.3784V23.0562C39.3784 22.6709 39.6908 22.3585 40.0761 22.3585C40.4614 22.3585 40.7739 22.6709 40.7739 23.0562ZM15.0843 38.6055C15.2151 38.7363 15.2886 38.9139 15.2886 39.0989C15.2886 39.2839 15.2151 39.4614 15.0843 39.5922L13.461 41.2154C13.3248 41.3515 13.1462 41.4197 12.9676 41.4197C12.789 41.4197 12.6105 41.3515 12.4742 41.2153C12.2017 40.9429 12.2017 40.5011 12.4742 40.2286L12.9062 39.7966H9.16361C8.77826 39.7966 8.46587 39.4842 8.46587 39.0989V23.0562C8.46587 22.6709 8.77826 22.3585 9.16361 22.3585C9.54895 22.3585 9.86134 22.6709 9.86134 23.0562V38.4011H12.9062L12.4742 37.9691C12.2017 37.6966 12.2017 37.2548 12.4742 36.9824C12.7467 36.7099 13.1885 36.71 13.4609 36.9823L15.0843 38.6055Z"/>
                                        </g>
                                    </svg>