<svg width="50" height="50" viewBox="0 0 50 50" xmlns="http://www.w3.org/2000/svg" class="">
                                        <path d="M46.4844 1.5625H3.51562C2.79067 1.5633 2.09564 1.85164 1.58301 2.36426C1.07039 2.87689 0.782051 3.57192 0.78125 4.29688V36.3281C0.782051 37.0531 1.07039 37.7481 1.58301 38.2607C2.09564 38.7734 2.79067 39.0617 3.51562 39.0625H32.1172L40.582 47.5273C41.0228 47.961 41.617 48.2029 42.2353 48.2004C42.8536 48.1978 43.4458 47.9511 43.883 47.5139C44.3202 47.0767 44.567 46.4845 44.5695 45.8662C44.572 45.2479 44.3301 44.6536 43.8965 44.2129L42.792 43.1074L38.7461 39.0625H46.4844C47.2093 39.0617 47.9044 38.7734 48.417 38.2607C48.9296 37.7481 49.2179 37.0531 49.2188 36.3281V4.29688C49.2179 3.57192 48.9296 2.87689 48.417 2.36426C47.9044 1.85164 47.2093 1.5633 46.4844 1.5625ZM26.2188 26.5352C26.1098 26.4258 25.9708 26.3513 25.8193 26.3213L23.0576 25.7686C22.9315 25.7434 22.801 25.7497 22.6779 25.787C22.5548 25.8244 22.4428 25.8915 22.3519 25.9825C22.261 26.0736 22.194 26.1856 22.1568 26.3088C22.1196 26.4319 22.1133 26.5623 22.1387 26.6885L22.6904 29.4502C22.7207 29.6015 22.7951 29.7405 22.9043 29.8496L27.4297 34.375H7.03125V6.25H42.9688V34.375H34.0586L26.2188 26.5352ZM26.7715 29.2969L25.667 30.4023L24.1768 28.9121L23.9004 27.5313L25.2812 27.8076L26.7715 29.2969ZM26.7715 31.5068L27.876 30.4023L31.7432 34.2695L30.6387 35.374L26.7715 31.5068ZM42.792 45.3174C42.9386 45.464 43.0209 45.6628 43.0209 45.8701C43.0209 46.0774 42.9386 46.2763 42.792 46.4229C42.6454 46.5694 42.4466 46.6518 42.2393 46.6518C42.0319 46.6518 41.8331 46.5694 41.6865 46.4229L41.1348 45.8701L42.2393 44.7656L42.792 45.3174ZM41.1348 43.6602L40.0293 44.7656L31.7432 36.4785L32.8477 35.374L41.1348 43.6602ZM47.6562 36.3281C47.656 36.6388 47.5324 36.9368 47.3127 37.1565C47.093 37.3762 46.7951 37.4997 46.4844 37.5H37.1836L35.6211 35.9375H43.75C43.9572 35.9375 44.1559 35.8552 44.3024 35.7087C44.4489 35.5622 44.5312 35.3634 44.5312 35.1562V5.46875C44.5312 5.26155 44.4489 5.06284 44.3024 4.91632C44.1559 4.76981 43.9572 4.6875 43.75 4.6875H6.25C6.0428 4.6875 5.84409 4.76981 5.69757 4.91632C5.55106 5.06284 5.46875 5.26155 5.46875 5.46875V35.1562C5.46875 35.3634 5.55106 35.5622 5.69757 35.7087C5.84409 35.8552 6.0428 35.9375 6.25 35.9375H28.9922L30.5547 37.5H3.51562C3.2049 37.4997 2.90698 37.3762 2.68727 37.1565C2.46756 36.9368 2.34401 36.6388 2.34375 36.3281V4.29688C2.34401 3.98615 2.46756 3.68823 2.68727 3.46852C2.90698 3.24881 3.2049 3.12526 3.51562 3.125H46.4844C46.7951 3.12526 47.093 3.24881 47.3127 3.46852C47.5324 3.68823 47.656 3.98615 47.6562 4.29688V36.3281Z" class=""/>
                                        <path d="M3.90625 17.9687C3.69905 17.9687 3.50034 18.051 3.35382 18.1976C3.20731 18.3441 3.125 18.5428 3.125 18.75V23.4375C3.125 23.6447 3.20731 23.8434 3.35382 23.9899C3.50034 24.1364 3.69905 24.2187 3.90625 24.2187C4.11345 24.2187 4.31216 24.1364 4.45868 23.9899C4.60519 23.8434 4.6875 23.6447 4.6875 23.4375V18.75C4.6875 18.5428 4.60519 18.3441 4.45868 18.1976C4.31216 18.051 4.11345 17.9687 3.90625 17.9687ZM46.0938 18.75C45.8866 18.75 45.6878 18.8323 45.5413 18.9788C45.3948 19.1253 45.3125 19.324 45.3125 19.5312V21.0937C45.3125 21.3009 45.3948 21.4996 45.5413 21.6462C45.6878 21.7927 45.8866 21.875 46.0938 21.875C46.3009 21.875 46.4997 21.7927 46.6462 21.6462C46.7927 21.4996 46.875 21.3009 46.875 21.0937V19.5312C46.875 19.324 46.7927 19.1253 46.6462 18.9788C46.4997 18.8323 46.3009 18.75 46.0938 18.75ZM33.2102 12.6367C33.1137 12.6716 33.025 12.7252 32.9492 12.7944C32.8734 12.8636 32.812 12.947 32.7685 13.0399C32.725 13.1329 32.7002 13.2335 32.6955 13.336C32.6909 13.4385 32.7065 13.5409 32.7414 13.6374C33.1781 14.8742 33.1069 16.2336 32.5434 17.4179C32.3825 17.7491 32.2229 17.9612 32.0551 18.0665C31.7059 18.2861 31.1583 18.1422 30.7953 17.9521C30.4617 17.7628 30.1445 17.5458 29.8472 17.3034C29.6139 17.1247 29.3727 16.9398 29.1109 16.7687C28.2605 16.223 27.2954 15.881 26.2911 15.7693C25.2868 15.6576 24.2702 15.7793 23.3206 16.1249C21.7507 16.7116 20.6448 17.8796 20.361 19.2494C20.1805 20.1224 20.3469 20.9643 20.4937 21.7071L20.8608 23.5632C20.901 23.7665 21.0203 23.9455 21.1924 24.0609C21.3646 24.1763 21.5755 24.2185 21.7788 24.1784C21.9821 24.1383 22.1612 24.019 22.2765 23.8468C22.3919 23.6747 22.4342 23.4637 22.394 23.2604L22.0271 21.4044C21.9031 20.7777 21.775 20.1298 21.8915 19.5662C22.0966 18.5763 23.0468 17.8963 23.868 17.5888C24.5877 17.327 25.3581 17.2348 26.1192 17.3195C26.8804 17.4042 27.6117 17.6635 28.2562 18.0771C28.4691 18.2162 28.677 18.3756 28.8973 18.5443C29.2648 18.8418 29.6575 19.1067 30.071 19.3359C31.0615 19.8548 32.1142 19.8745 32.8868 19.3889C33.4493 19.0354 33.7624 18.4841 33.9488 18.0999C34.3222 17.3264 34.5377 16.4863 34.5827 15.6286C34.6276 14.7709 34.5011 13.9128 34.2106 13.1046C34.14 12.9099 33.9949 12.7513 33.8073 12.6635C33.6196 12.5758 33.4049 12.5661 33.2102 12.6367Z"/>
                                    </svg>