<svg width="50" height="50" viewBox="0 0 50 50" xmlns="http://www.w3.org/2000/svg">
                                        <path d="M27.7989 31.2999V4.7C27.7989 4.31343 27.4855 4 27.0989 4H7.49878V5.4H26.3989V31.2999H27.7989Z"/>
                                        <path d="M29.8997 36.1999C29.5131 36.1999 29.1997 36.5134 29.1997 36.8999V45.2999C29.1997 45.6865 29.5131 45.9999 29.8997 45.9999H45.2998C45.6864 45.9999 45.9998 45.6865 45.9998 45.2999V36.8999C45.9998 36.5134 45.6864 36.1999 45.2998 36.1999H38.2998V34.7999H38.9998C39.3863 34.7999 39.6998 34.4865 39.6998 34.0999V29.9974L45.9738 7.68969C45.9738 7.68183 45.9738 7.67499 45.9738 7.66713C45.9964 7.57758 46.0005 7.48427 45.9858 7.39301C45.9858 7.37455 45.9783 7.35781 45.9738 7.33969C45.9544 7.24604 45.9154 7.15785 45.8597 7.07992L43.7597 4.27993C43.6277 4.10391 43.4203 4 43.1998 4H31.9997C31.7793 4 31.5718 4.10391 31.4399 4.27993L29.3398 7.07992C29.2838 7.15751 29.2448 7.24604 29.225 7.33969C29.2206 7.35781 29.2158 7.37455 29.213 7.39301C29.1983 7.48427 29.2024 7.57758 29.225 7.66713V7.68969L35.4997 29.9974V34.0999C35.4997 34.4865 35.8132 34.7999 36.1998 34.7999H36.8998V36.1999H29.8997ZM38.2998 33.3999H36.8998V30.5999H38.2998V33.3999ZM37.5998 22.284L33.6243 8.19999H41.5752L37.5998 22.284ZM39.0039 27.2989L38.3264 24.8598L43.0296 8.19999H44.3759L39.0039 27.2989ZM32.3497 5.4H42.8498L43.8998 6.79999H31.2997L32.3497 5.4ZM32.1699 8.19999L36.925 25.0461L38.0786 29.1999H36.7302L30.8236 8.19999H32.1699ZM44.5998 44.5999H30.5997V37.5999H44.5998V44.5999Z"/>
                                        <path d="M32.3885 42.4298L33.7885 43.1298C33.9854 43.2282 34.2171 43.2282 34.414 43.1298L35.814 42.4298C36.0526 42.3108 36.2026 42.0664 36.2013 41.7998V40.3999C36.2026 40.1332 36.0526 39.8889 35.814 39.7699L34.414 39.0699C34.2171 38.9715 33.9854 38.9715 33.7885 39.0699L32.3885 39.7699C32.1499 39.8889 31.9999 40.1332 32.0012 40.3999V41.7998C31.9999 42.0664 32.1499 42.3108 32.3885 42.4298ZM33.4012 40.8326L34.1012 40.4826L34.8012 40.8326V41.3671L34.1012 41.7171L33.4012 41.3671V40.8326Z"/>
                                        <path d="M37.6013 39.0004H43.2014V40.4004H37.6013V39.0004Z"/>
                                        <path d="M37.6013 41.8004H43.2014V43.2004H37.6013V41.8004Z"/>
                                        <path d="M4.7 34.8H24.3001C24.6867 34.8 25.0001 34.4866 25.0001 34.1V13.8C25.0001 13.7853 24.9923 13.772 24.9916 13.7573C24.9878 13.6954 24.9755 13.6343 24.9554 13.5755C24.9475 13.5529 24.942 13.5321 24.9321 13.5102C24.8983 13.434 24.8508 13.3646 24.7923 13.3051L18.4923 7.00513C18.4331 6.94634 18.3638 6.89883 18.2879 6.86499C18.2653 6.85474 18.2438 6.84893 18.2178 6.84072C18.16 6.8209 18.1002 6.80928 18.0394 6.80552C18.0295 6.80791 18.0155 6.80005 18.0001 6.80005H4.7C4.31343 6.80005 4 7.11348 4 7.50005V34.1C4 34.4866 4.31343 34.8 4.7 34.8ZM22.6103 13.1H18.7001V9.18989L22.6103 13.1ZM5.40001 8.20005H17.3001V13.8C17.3001 14.1866 17.6135 14.5 18.0001 14.5H23.6001V33.4H5.40001V8.20005Z"/>
                                        <path d="M7.27842 13.7646L9.37843 14.4646C9.52199 14.5121 9.67717 14.5121 9.82072 14.4646L11.9207 13.7646C12.2068 13.6693 12.3996 13.4016 12.3996 13.1002V11.0002C12.3996 10.6987 12.2068 10.4311 11.9207 10.3357L9.82072 9.63573C9.67717 9.58822 9.52199 9.58822 9.37843 9.63573L7.27842 10.3357C6.99234 10.4311 6.79956 10.6987 6.79956 11.0002V13.1002C6.79956 13.4016 6.99234 13.6693 7.27842 13.7646ZM9.59958 11.0381L10.9996 11.505V12.5953L9.59958 13.0622L8.19957 12.5953V11.505L9.59958 11.0381Z"/>
                                        <path d="M13.7993 9.60034H15.8993V11.0003H13.7993V9.60034Z"/>
                                        <path d="M13.7993 12.4004H15.8993V13.8004H13.7993V12.4004Z"/>
                                        <path d="M4.7 46.0001H21.5001C21.8867 46.0001 22.2001 45.6866 22.2001 45.3001V36.9001C22.1964 36.8724 22.1905 36.845 22.1834 36.818C22.1793 36.7787 22.1717 36.7398 22.1601 36.7018C22.1236 36.6246 22.0873 36.5473 22.0518 36.4694C22.0439 36.4592 22.0306 36.4557 22.0224 36.4458C21.9752 36.3935 21.9202 36.3488 21.8593 36.3135C21.8368 36.2965 21.8135 36.2811 21.7893 36.2674C21.699 36.224 21.6003 36.2011 21.5001 36.2001H4.7C4.59917 36.2018 4.50005 36.2257 4.40948 36.2701C4.38521 36.2842 4.36197 36.2995 4.33941 36.3163C4.27891 36.3518 4.22422 36.3966 4.17705 36.4486C4.16885 36.4585 4.15552 36.4619 4.14766 36.4725C4.14014 36.4827 4.13091 36.5159 4.11758 36.5361C4.08408 36.5884 4.05742 36.6451 4.03931 36.7049C4.02769 36.7425 4.02017 36.7815 4.01606 36.8211C4.00923 36.8471 4.00376 36.8734 4 36.9001V45.3001C4 45.6866 4.31343 46.0001 4.7 46.0001ZM5.40001 44.6001V40.2131C5.63653 40.3355 5.89869 40.3994 6.16495 40.4001H20.0352C20.3014 40.3994 20.5636 40.3355 20.8001 40.2131V44.6001H5.40001ZM20.6036 37.6001L20.3059 38.7902C20.2741 38.9136 20.1626 39.0001 20.0352 39.0001H6.16495C6.03712 39.0004 5.92535 38.9139 5.89357 38.7902L5.59654 37.6001H20.6036Z"/>
                                        <path d="M6.79956 41.8004H8.19957V43.2004H6.79956V41.8004Z"/>
                                        <path d="M9.6001 41.8004H13.8001V43.2004H9.6001V41.8004Z"/>
                                        <path d="M6.79956 30.6003V32.0003H22.1997V30.6003H6.79956Z"/>
                                    </svg>