<svg width="50" height="50" viewBox="0 0 50 50" xmlns="http://www.w3.org/2000/svg">
                                        <path d="M44.686 3H5.194C4.61232 3.00065 4.05464 3.23202 3.64333 3.64333C3.23202 4.05464 3.00065 4.61232 3 5.194V36.6413C3.00065 37.223 3.23202 37.7807 3.64333 38.192C4.05464 38.6033 4.61232 38.8347 5.194 38.8353H19.5945L17.7994 45.4173H16.164V46.88H33.716V45.4173H32.0806L30.2855 38.8353H44.686C45.2677 38.8347 45.8254 38.6033 46.2367 38.192C46.648 37.7807 46.8793 37.223 46.88 36.6413V5.194C46.8793 4.61232 46.648 4.05464 46.2367 3.64333C45.8254 3.23202 45.2677 3.00065 44.686 3ZM30.5645 45.4173H19.3155L21.1106 38.8353H28.7694L30.5645 45.4173ZM45.4173 36.6413C45.4171 36.8352 45.34 37.0211 45.2029 37.1582C45.0658 37.2953 44.8799 37.3724 44.686 37.3727H5.194C5.00011 37.3724 4.81424 37.2953 4.67714 37.1582C4.54004 37.0211 4.46291 36.8352 4.46267 36.6413V33.716H45.4173V36.6413ZM17.678 26.7981L18.7535 25.7226L20.9541 26.598L23.2446 25.649L24.1794 23.4773H25.7006L26.6354 25.649L28.9259 26.5979L31.1265 25.7226L32.202 26.7981L31.3266 28.9987L32.2757 31.2893L34.4473 32.2242V32.2533H30.7433C30.5655 30.8396 29.8778 29.5394 28.8093 28.5968C27.7407 27.6542 26.3649 27.1341 24.94 27.1341C23.5151 27.1341 22.1393 27.6542 21.0707 28.5968C20.0022 29.5394 19.3145 30.8396 19.1367 32.2533H15.4327V32.2241L17.6043 31.2893L18.5534 28.9987L17.678 26.7981ZM29.2659 32.2533H20.6141C20.7866 31.2308 21.3158 30.3025 22.1077 29.633C22.8996 28.9635 23.903 28.5962 24.94 28.5962C25.977 28.5962 26.9804 28.9635 27.7723 29.633C28.5642 30.3025 29.0934 31.2308 29.2659 32.2533ZM45.4173 32.2533H35.91V31.2615L33.3996 30.1806L32.9052 28.9875L33.9169 26.4444L31.4801 24.0078L28.9371 25.0194L27.7441 24.5251L26.6632 22.0147H23.2168L22.1361 24.525L20.943 25.0195L18.4 24.0078L15.9632 26.4444L16.9749 28.9875L16.4805 30.1806L13.97 31.2615V32.2533H4.46267V5.194C4.46291 5.00011 4.54004 4.81424 4.67714 4.67714C4.81424 4.54004 5.00011 4.46291 5.194 4.46267H44.686C44.8799 4.46291 45.0658 4.54004 45.2029 4.67714C45.34 4.81424 45.4171 5.00011 45.4173 5.194V32.2533Z"/>
                                        <path d="M41.7607 13.9701C41.7607 12.379 41.2889 10.8236 40.405 9.50071C39.521 8.17777 38.2646 7.14666 36.7946 6.53778C35.3246 5.9289 33.7071 5.76959 32.1466 6.07999C30.5861 6.3904 29.1527 7.15658 28.0276 8.28165C26.9026 9.40671 26.1364 10.8401 25.826 12.4006C25.5156 13.9612 25.6749 15.5787 26.2838 17.0486C26.8926 18.5186 27.9237 19.775 29.2467 20.659C30.5696 21.5429 32.125 22.0148 33.7161 22.0148H34.4474V14.7014H41.7607V13.9701ZM32.9847 20.5118C31.8147 20.3818 30.7009 19.9401 29.7598 19.2329C28.8187 18.5257 28.0846 17.5788 27.6343 16.4911C27.1839 15.4033 27.0338 14.2147 27.1995 13.0492C27.3653 11.8836 27.8409 10.784 28.5766 9.86493L32.9847 14.273V20.5118ZM34.019 13.2388L29.6109 8.83064C30.5299 8.09487 31.6296 7.61928 32.7952 7.45351C33.9607 7.28773 35.1494 7.43786 36.2371 7.8882C37.3248 8.33855 38.2717 9.07262 38.979 10.0138C39.6862 10.9549 40.1279 12.0687 40.2578 13.2388H34.019Z"/>
                                        <path d="M35.9101 23.4774H36.7328C38.4536 23.4755 40.1034 22.791 41.3202 21.5742C42.537 20.3574 43.2215 18.7076 43.2234 16.9868V16.1641H35.9101V23.4774ZM37.3727 17.6267H41.7202C41.577 18.7296 41.0728 19.7541 40.2865 20.5405C39.5001 21.3269 38.4756 21.831 37.3727 21.9743V17.6267ZM22.0147 5.92542H8.85074C8.26905 5.92607 7.71138 6.15743 7.30007 6.56874C6.88875 6.98006 6.65739 7.53773 6.65674 8.11942V18.3581C6.65739 18.9398 6.88875 19.4974 7.30007 19.9088C7.71138 20.3201 8.26905 20.5514 8.85074 20.5521H22.0147C22.5964 20.5514 23.1541 20.3201 23.5654 19.9088C23.9767 19.4974 24.2081 18.9398 24.2087 18.3581V8.11942C24.2081 7.53773 23.9767 6.98006 23.5654 6.56874C23.1541 6.15743 22.5964 5.92607 22.0147 5.92542ZM22.7461 18.3581C22.7458 18.552 22.6687 18.7378 22.5316 18.8749C22.3945 19.012 22.2086 19.0892 22.0147 19.0894H8.85074C8.65685 19.0892 8.47097 19.012 8.33387 18.8749C8.19678 18.7378 8.11965 18.552 8.11941 18.3581V10.3134H22.7461V18.3581ZM22.7461 8.85075H8.11941V8.11942C8.11965 7.92553 8.19678 7.73965 8.33387 7.60255C8.47097 7.46545 8.65685 7.38832 8.85074 7.38808H22.0147C22.2086 7.38832 22.3945 7.46545 22.5316 7.60255C22.6687 7.73965 22.7458 7.92553 22.7461 8.11942V8.85075ZM6.65674 22.7461H15.4327V24.2088H6.65674V22.7461ZM6.65674 25.6714H13.2387V27.1341H6.65674V25.6714ZM6.65674 28.5968H13.2387V30.0594H6.65674V28.5968ZM35.9101 25.6714H43.2234V27.1341H35.9101V25.6714ZM35.9101 28.5968H43.2234V30.0594H35.9101V28.5968Z"/>
                                        <path d="M13.0246 16.3782L11.3477 14.7014L13.0246 13.0245L11.9904 11.9902L9.2793 14.7014L11.9904 17.4125L13.0246 16.3782ZM14.012 16.6252L15.4731 12.9704L16.8305 13.5131L15.3694 17.1679L14.012 16.6252ZM18.8753 17.4125L21.5864 14.7014L18.8753 11.9902L17.841 13.0245L19.518 14.7014L17.841 16.3782L18.8753 17.4125Z"/>
                                    </svg>