<svg width="108" height="180" viewBox="0 0 108 180" fill="none" xmlns="http://www.w3.org/2000/svg">
                                        <path d="M89.6729 4.68787C91.0444 -0.896096 98.9837 -0.895955 100.355 4.68787L109.939 43.7074C110.974 47.9199 115.766 49.9566 119.517 47.7777L156.01 26.5775C161.082 23.6312 166.627 29.6097 163.308 34.4457L141.517 66.1918C138.889 70.0202 141.007 75.2901 145.554 76.2347L185.135 84.4594C190.976 85.6734 190.976 94.0149 185.135 95.2289L145.554 103.453C141.007 104.398 138.889 109.668 141.518 113.496L163.302 145.227C166.622 150.063 161.077 156.042 156.005 153.095L119.517 131.899C115.766 129.72 110.974 131.756 109.939 135.969L100.355 174.995C98.9841 180.58 91.0442 180.58 89.6729 174.995L80.0898 135.968C79.0554 131.756 74.2636 129.719 70.5127 131.898L34.0078 153.1C28.9357 156.046 23.3914 150.067 26.7109 145.232L48.498 113.496C51.1262 109.668 49.0075 104.398 44.4609 103.453L4.88086 95.2289C-0.960149 94.0149 -0.960158 85.6733 4.88086 84.4594L44.4619 76.2347C49.0083 75.2901 51.1268 70.0202 48.499 66.1918L26.7051 34.4408C23.3864 29.6052 28.9302 23.6272 34.002 26.5726L70.5127 47.7787C74.2634 49.9571 79.0551 47.9206 80.0898 43.7084L89.6729 4.68787Z" stroke="#CFE4FF"/>
                                    </svg>