<svg width="28" height="28" viewBox="0 0 28 28" xmlns="http://www.w3.org/2000/svg">
                                                                            <path d="M25.4297 3.87695H2.57031C1.88886 3.87772 1.23554 4.14877 0.753674 4.63063C0.271814 5.11249 0.000767151 5.76581 0 6.44727L0 21.5543C0.000767151 22.2357 0.271814 22.889 0.753674 23.3709C1.23554 23.8528 1.88886 24.1238 2.57031 24.1246H25.4297C26.1111 24.1238 26.7645 23.8528 27.2463 23.3709C27.7282 22.889 27.9992 22.2357 28 21.5543V6.44727C27.9992 5.76581 27.7282 5.11249 27.2463 4.63063C26.7645 4.14877 26.1111 3.87772 25.4297 3.87695ZM18.4828 14.0008L26.5688 5.91472C26.6471 6.08133 26.6876 6.26318 26.6875 6.44727V21.5543C26.6876 21.7383 26.6471 21.9202 26.5688 22.0868L18.4828 14.0008ZM25.4297 5.18945H25.4377L14 16.6274L2.56227 5.18967H2.57031L25.4297 5.18945ZM1.43117 22.0868C1.35289 21.9202 1.31237 21.7383 1.3125 21.5543V6.44727C1.31236 6.26318 1.35288 6.08133 1.43117 5.91472L9.51721 14.0008L1.43117 22.0868ZM2.57031 22.8121C2.56763 22.8121 2.56484 22.8121 2.56222 22.8121L10.4453 14.9288L13.536 18.0195C13.6591 18.1426 13.826 18.2117 14.0001 18.2117C14.1741 18.2117 14.341 18.1426 14.4641 18.0195L17.5547 14.9289L25.4377 22.8118C25.435 22.8118 25.4323 22.8118 25.4297 22.8118L2.57031 22.8121Z"/>
                                                                        </svg>