<svg width="28" height="28" viewBox="0 0 28 28" xmlns="http://www.w3.org/2000/svg">
                                                                            <g>
                                                                                <path d="M11.1285 9.75183C11.2942 9.58619 11.4598 9.41502 11.631 9.24386C12.2218 8.65306 12.5365 7.96841 12.5365 7.27271C12.5365 6.57701 12.2218 5.89787 11.631 5.30156L10.0077 3.67826C9.81995 3.49053 9.63775 3.30281 9.45554 3.11508C9.09113 2.74514 8.72119 2.36416 8.35126 2.01631C7.79359 1.45865 7.13102 1.16602 6.43532 1.16602C5.73962 1.16602 5.07153 1.45865 4.49178 2.01631L2.44333 4.05924C1.70346 4.79911 1.28383 5.70463 1.18997 6.74817C1.08506 8.05123 1.32248 9.44263 1.94641 11.1156C2.90161 13.7052 4.3427 16.107 6.47949 18.68C9.07456 21.783 12.1997 24.229 15.7665 25.9517C17.1248 26.5977 18.9413 27.3541 20.9622 27.4866C21.0892 27.4922 21.2106 27.4977 21.3321 27.4977C22.6904 27.4977 23.7836 27.0284 24.6726 26.0621C24.6781 26.0566 24.6891 26.0455 24.6947 26.0345C25.0094 25.6535 25.3683 25.3112 25.7437 24.9468C25.9977 24.6983 26.2628 24.4443 26.5112 24.1793C27.6762 22.9646 27.6762 21.4241 26.5002 20.2481L23.226 16.9738C22.6683 16.3941 22.0002 16.0849 21.299 16.0849C20.5978 16.0849 19.9297 16.3886 19.3554 16.9628L17.4119 18.9174C17.2352 18.8125 17.053 18.7241 16.8763 18.6358C16.661 18.5254 16.4567 18.426 16.2745 18.31C14.4966 17.1837 12.8843 15.7094 11.3439 13.8156C10.5653 12.8328 10.0463 12.0046 9.68192 11.1598C10.1899 10.7015 10.6703 10.2156 11.1285 9.75183ZM8.66046 10.2598C8.64941 10.2708 8.64389 10.2764 8.63285 10.2874C8.18009 10.7402 8.24635 11.1764 8.35678 11.5076C8.3623 11.5242 8.36782 11.5352 8.37334 11.5518C8.79297 12.5622 9.37824 13.5174 10.2838 14.6659C11.9236 16.6812 13.6408 18.2493 15.5401 19.453C15.7776 19.602 16.026 19.729 16.2635 19.845C16.4788 19.9554 16.6831 20.0548 16.8653 20.1708C16.8874 20.1818 16.9039 20.1928 16.926 20.2039C17.1082 20.2977 17.2794 20.3419 17.4561 20.3419C17.8978 20.3419 18.1794 20.0603 18.2733 19.9665L20.3107 17.9291C20.6254 17.6143 20.9677 17.4487 21.299 17.4487C21.7131 17.4487 22.0444 17.7027 22.2597 17.9291L25.545 21.2143C26.1965 21.8658 26.191 22.5671 25.5284 23.2572C25.2965 23.5002 25.0591 23.7321 24.7996 23.9805C24.4186 24.3505 24.0211 24.7314 23.6622 25.1621C23.0382 25.8357 22.2928 26.1505 21.3266 26.1505C21.2327 26.1505 21.1333 26.1449 21.0395 26.1394C19.2505 26.0235 17.5886 25.3278 16.3463 24.7314C12.9561 23.0916 9.9856 20.7615 7.512 17.8131C5.48012 15.3671 4.1108 13.0868 3.21081 10.6463C2.65867 9.16104 2.44333 7.95737 2.53168 6.86412C2.59241 6.14082 2.874 5.53346 3.39302 5.01997L5.41938 2.99361C5.7341 2.68993 6.08195 2.52981 6.41876 2.52981C6.75004 2.52981 7.08133 2.68441 7.39605 2.99913C7.76046 3.34146 8.10831 3.69483 8.47273 4.07028C8.66046 4.25801 8.84818 4.45126 9.03591 4.64451L10.6592 6.26781C10.996 6.60462 11.1672 6.94694 11.1672 7.27823C11.1672 7.60952 10.996 7.95184 10.6592 8.28865C10.488 8.45982 10.3224 8.63098 10.1512 8.80214C9.65983 9.31011 9.18499 9.796 8.66046 10.2598Z"/>
                                                                                <path d="M16.6789 11.9838C16.7808 12.0857 16.9124 12.1366 17.0482 12.1366C17.184 12.1366 17.3156 12.0857 17.4174 11.9838L24.2592 5.13774V9.18681C24.2592 9.47542 24.4927 9.70886 24.7813 9.70886C25.0699 9.70886 25.3033 9.47542 25.3033 9.18681V3.88142C25.3033 3.59281 25.0699 3.35938 24.7813 3.35938H19.4759C19.1873 3.35938 18.9539 3.59281 18.9539 3.88142C18.9539 4.17004 19.1873 4.40347 19.4759 4.40347H23.525L16.6789 11.2495C16.4752 11.4533 16.4752 11.7843 16.6789 11.9838Z"/>
                                                                            </g>
                                                                        </svg>