<svg width="60" height="60" viewBox="0 0 60 60" xmlns="http://www.w3.org/2000/svg" class="">
                                        <mask id="mask0_1007_22285" style="mask-type:alpha" maskUnits="userSpaceOnUse" x="0" y="0" width="60" height="60" class="">
                                            <rect x="60" y="60" width="60" height="60" transform="rotate(180 60 60)" class=""/>
                                        </mask>
                                        <g class="">
                                            <path d="M17.0742 28.4081L7.70671 19.6839C6.01087 18.1046 7.62254 15.3343 9.84907 16.0018L22.1475 19.6889C23.3633 20.0535 24.6367 19.3238 24.9265 18.097L27.8575 5.68541C28.3882 3.4382 31.6118 3.4382 32.1425 5.68541L35.0735 18.097C35.3633 19.3241 36.6367 20.0535 37.8525 19.6889L50.1509 16.0018C52.3775 15.3343 53.9894 18.1043 52.2933 19.6839L42.9258 28.4081C41.9999 29.2706 41.9999 30.7297 42.9258 31.5919L52.2933 40.3161C53.9891 41.8954 52.3775 44.6657 50.1509 43.9982L37.8525 40.311C36.6367 39.9465 35.3633 40.6762 35.0735 41.903L32.1425 54.3146C31.6118 56.5618 28.3882 56.5618 27.8575 54.3146L24.9265 41.903C24.6367 40.6759 23.3633 39.9465 22.1475 40.311L9.84907 43.9982C7.62254 44.6657 6.01055 41.8957 7.70671 40.3161L17.0742 31.5919C18.0005 30.7297 18.0005 29.2706 17.0742 28.4081Z" class=""/>
                                        </g>
                                    </svg>