<svg width="60" height="60" viewBox="0 0 60 60" xmlns="http://www.w3.org/2000/svg" class="">
                                        <mask id="mask0_1007_22320" style="mask-type:alpha" maskUnits="userSpaceOnUse" x="0" y="0" width="60" height="60" class="">
                                            <rect x="60" y="60" width="60" height="60" transform="rotate(180 60 60)" class=""/>
                                        </mask>
                                        <g class="">
                                            <path d="M40.8852 41.0196L33.5039 54.5155C32.4213 56.4949 29.5784 56.4949 28.4961 54.5155L21.1149 41.0196C20.853 40.5408 20.4593 40.147 19.9804 39.8852L6.48454 32.5039C4.50515 31.4213 4.50515 28.5784 6.48454 27.4958L19.9804 20.1149C20.4593 19.853 20.853 19.4592 21.1149 18.9804L28.4961 5.48454C29.5787 3.50515 32.4216 3.50515 33.5039 5.48454L40.8852 18.9804C41.147 19.4592 41.5408 19.853 42.0196 20.1149L55.5155 27.4958C57.4949 28.5784 57.4949 31.4213 55.5155 32.5039L42.0196 39.8852C41.5411 40.147 41.147 40.5408 40.8852 41.0196Z" class=""/>
                                        </g>
                                    </svg>