<svg width="60" height="60" viewBox="0 0 60 60" xmlns="http://www.w3.org/2000/svg" class="">
                                        <mask id="mask0_1007_22258" style="mask-type:alpha" maskUnits="userSpaceOnUse" x="0" y="0" width="60" height="60" class="">
                                            <rect x="60" y="60" width="60" height="60" transform="rotate(180 60 60)" class=""/>
                                        </mask>
                                        <g class="">
                                            <path d="M51.6209 8.46365C50.0988 6.94167 46.7612 5.91343 39.5059 9.65657C36.505 11.2046 33.2689 13.3586 30 15.9621C30.5941 16.4353 31.1894 16.9241 31.7843 17.4258C34.8047 15.0508 37.7805 13.0848 40.5406 11.6612C43.5026 10.1331 46.0322 9.34279 47.8173 9.34279C48.7922 9.34279 49.5452 9.57854 50.0255 10.0587C51.3848 11.4176 50.7857 14.9625 48.4225 19.5409C46.9985 22.3002 45.0319 25.2753 42.6563 28.2948C43.1585 28.8896 43.647 29.4847 44.1203 30.0786C46.7246 26.8106 48.8792 23.5753 50.4276 20.5753C54.1715 13.3217 53.143 9.98534 51.6209 8.46365Z" class=""/>
                                            <path d="M19.4589 48.4964C14.8793 50.8586 11.3334 51.4579 9.97407 50.0986C8.61445 48.7397 9.21385 45.195 11.577 40.6163C13.0011 37.857 14.9676 34.882 17.3433 31.8625C16.8411 31.2677 16.3524 30.6726 15.8791 30.0786C13.2749 33.3466 11.1204 36.5819 9.57188 39.5823C5.82799 46.8359 6.85648 50.1725 8.37859 51.6939C9.12771 52.4428 10.3159 53.0721 12.1955 53.0721C14.1345 53.0721 16.8093 52.4014 20.4938 50.501C23.4947 48.9529 26.7309 46.7992 29.9998 44.1954C29.4057 43.7222 28.8104 43.2338 28.2155 42.7317C25.1949 45.1067 22.219 47.0727 19.4589 48.4964Z" class=""/>
                                            <path d="M48.4225 40.6169C50.7857 45.1953 51.3848 48.7402 50.0255 50.0991C48.6661 51.4587 45.1203 50.8594 40.5406 48.4969C37.7805 47.0729 34.8047 45.1072 31.7843 42.7322C31.1891 43.2343 30.5941 43.7227 30 44.1959C33.2689 46.7994 36.505 48.9534 39.5059 50.5015C43.1909 52.4025 45.8653 53.0725 47.8043 53.0725C49.6833 53.0725 50.8721 52.4433 51.6212 51.6944C53.1433 50.1727 54.1715 46.8358 50.4279 39.5828C48.8794 36.5827 46.7249 33.3471 44.1206 30.0791C43.6473 30.6731 43.1585 31.2682 42.6565 31.8629C45.0319 34.8825 46.9985 37.8575 48.4225 40.6169Z" class=""/>
                                            <path d="M11.577 19.541C9.21385 14.9625 8.61473 11.4177 9.97407 10.0587C10.4543 9.57858 11.207 9.34283 12.1822 9.34283C13.9674 9.34283 16.4969 10.1331 19.4589 11.6612C22.219 13.0849 25.1949 15.0509 28.2152 17.4259C28.8102 16.9238 29.4054 16.4353 29.9995 15.9622C26.7306 13.3586 23.4944 11.2047 20.4935 9.65661C13.2379 5.91402 9.90043 6.94171 8.37859 8.46369C6.85648 9.98538 5.82799 13.322 9.57188 20.5756C11.1204 23.5757 13.2749 26.8109 15.8791 30.079C16.3524 29.485 16.8413 28.8899 17.3433 28.2951C14.9676 25.2754 13.0011 22.3003 11.577 19.541Z" class=""/>
                                            <path d="M42.6539 28.2944C41.049 26.3931 39.3027 24.4932 37.4434 22.6344C35.5841 20.7756 33.6838 19.0298 31.782 17.4254C31.1867 16.9233 30.5917 16.4348 29.9976 15.9617C29.4035 16.4348 28.8082 16.9236 28.2133 17.4254C26.3115 19.0298 24.4111 20.7756 22.5517 22.6344C20.6924 24.4932 18.9462 26.3931 17.3411 28.2944C16.8389 28.8892 16.3503 29.4842 15.877 30.0782C16.3503 30.6721 16.8392 31.2672 17.3411 31.862C18.946 33.7633 20.6922 35.6632 22.5517 37.522C24.4111 39.3808 26.3115 41.1269 28.2133 42.7313C28.8082 43.2334 29.4035 43.7218 29.9976 44.195C30.5917 43.7218 31.187 43.2334 31.782 42.7313C33.6838 41.1269 35.5841 39.3811 37.4434 37.522C39.3027 35.6632 41.049 33.7633 42.6539 31.862C43.1561 31.267 43.6447 30.6721 44.118 30.0782C43.6447 29.4842 43.1561 28.8894 42.6539 28.2944Z" class=""/>
                                        </g>
                                    </svg>