<svg width="60" height="60" viewBox="0 0 60 60" xmlns="http://www.w3.org/2000/svg" class="">
                                        <mask id="mask0_1007_22342" style="mask-type:alpha" maskUnits="userSpaceOnUse" x="0" y="0" width="60" height="60" class="">
                                            <rect x="60" y="60" width="60" height="60" transform="rotate(180 60 60)" class=""/>
                                        </mask>
                                        <g class="">
                                            <path d="M13.0127 54.1484C8.58747 54.1484 5 50.5619 5 46.1378V14.096C5 9.67192 8.58747 6.08545 13.0127 6.08545C17.438 6.08545 21.0254 9.67192 21.0254 14.096V46.1378C21.0254 50.5619 17.438 54.1484 13.0127 54.1484Z" class=""/>
                                            <path d="M29.9991 54.1484C25.5738 54.1484 21.9863 50.5619 21.9863 46.1378V14.096C21.9863 9.67192 25.5738 6.08545 29.9991 6.08545C34.4243 6.08545 38.0118 9.67192 38.0118 14.096V46.1378C38.0118 50.5619 34.4246 54.1484 29.9991 54.1484Z" class=""/>
                                            <path d="M48.5334 54.1484H45.4412C41.8697 54.1484 38.9746 51.2541 38.9746 47.6835V12.5503C38.9746 8.97977 41.8697 6.08545 45.4412 6.08545H48.5334C52.1049 6.08545 55 8.97977 55 12.5503V47.6835C55 51.2538 52.1049 54.1484 48.5334 54.1484Z" class=""/>
                                        </g>
                                    </svg>