<svg width="60" height="60" viewBox="0 0 60 60" xmlns="http://www.w3.org/2000/svg" class="">
                                        <mask id="mask0_1007_22217" style="mask-type:alpha" maskUnits="userSpaceOnUse" x="0" y="0" width="60" height="60" class="">
                                            <rect x="60" y="60" width="60" height="60" transform="rotate(180 60 60)" class=""/>
                                        </mask>
                                        <g class="">
                                            <path d="M9.99867 8.33318C12.844 8.33318 15.6614 8.8936 18.2901 9.98245C20.9188 11.0713 23.3074 12.6673 25.3193 14.6792C27.3312 16.6911 28.9272 19.0796 30.016 21.7084C31.1049 24.3371 31.6653 27.1545 31.6653 29.9998C31.6653 32.8451 31.1049 35.6626 30.016 38.2913C28.9272 40.92 27.3312 43.3086 25.3193 45.3205C23.3074 47.3324 20.9188 48.9284 18.2901 50.0172C15.6614 51.1061 12.844 51.6665 9.99866 51.6665L9.99867 29.9998L9.99867 8.33318Z" class=""/>
                                            <path d="M31.6679 4C35.0823 4.00001 38.4632 4.67251 41.6177 5.97914C44.7722 7.28576 47.6384 9.20091 50.0527 11.6152C52.467 14.0296 54.3821 16.8958 55.6888 20.0502C56.9954 23.2047 57.6679 26.5856 57.6679 30C57.6679 33.4144 56.9954 36.7953 55.6888 39.9498C54.3821 43.1042 52.467 45.9705 50.0527 48.3848C47.6384 50.7991 44.7721 52.7142 41.6177 54.0209C38.4632 55.3275 35.0823 56 31.6679 56L31.6679 30L31.6679 4Z" class=""/>
                                        </g>
                                    </svg>