<svg width="40" height="40" viewBox="0 0 40 40" xmlns="http://www.w3.org/2000/svg">
                                                        <g>
                                                            <path d="M12.0422 14.3485L19.7579 17.3486C19.9136 17.4092 20.0864 17.4092 20.2421 17.3486L27.958 14.3485C28.0834 14.2997 28.1912 14.2141 28.2672 14.1031C28.3432 13.992 28.3838 13.8605 28.3838 13.7259V4.81647C28.3838 4.68187 28.3431 4.55041 28.2671 4.43932C28.1911 4.32823 28.0833 4.2427 27.9579 4.19393L20.242 1.19386C20.0863 1.1333 19.9136 1.1333 19.7579 1.19386L12.0423 4.19393C11.9168 4.2427 11.809 4.32823 11.733 4.43932C11.657 4.55041 11.6163 4.68187 11.6163 4.81647V13.7259C11.6163 13.8605 11.657 13.992 11.733 14.1031C11.809 14.2141 11.9168 14.2997 12.0422 14.3485ZM12.9523 5.79282L14.1555 6.2607V8.18964C14.1555 8.32898 14.1991 8.46483 14.2801 8.57818C14.3612 8.69152 14.4756 8.77669 14.6075 8.82176L17.2449 9.72308C17.3454 9.7574 17.4527 9.76725 17.5578 9.7518C17.663 9.73634 17.7629 9.69604 17.8493 9.63424C17.9357 9.57243 18.0062 9.4909 18.0548 9.39641C18.1034 9.30193 18.1288 9.19721 18.1288 9.09095V7.80563L19.332 8.27351V15.7496L12.9523 13.2689V5.79282ZM20 7.09996L19.2889 6.82342L25.1615 4.53994L25.8726 4.81655L20 7.09996ZM15.4914 6.78015L16.7929 7.28618V8.15676L15.4914 7.71197V6.78015ZM17.4457 6.10677L16.6817 5.80967L22.5543 3.52626L23.3183 3.82328L17.4457 6.10677ZM20.668 15.7496V8.27351L27.0479 5.79282V13.2689L20.668 15.7496ZM20 2.53306L20.7112 2.8096L14.8386 5.09301L14.1275 4.81655L20 2.53306ZM14.0828 33.6469L15.8345 31.8954C15.9597 31.7701 16.0301 31.6003 16.0301 31.4231C16.0301 31.246 15.9597 31.0761 15.8345 30.9508L15.327 30.4432C15.5897 29.9737 15.7964 29.475 15.943 28.9573H16.6602C16.8373 28.9573 17.0072 28.8869 17.1325 28.7617C17.2578 28.6364 17.3281 28.4665 17.3281 28.2893V25.8123C17.3281 25.6351 17.2578 25.4652 17.1325 25.34C17.0072 25.2147 16.8373 25.1443 16.6602 25.1443H15.943C15.7965 24.6266 15.5898 24.1279 15.327 23.6583L15.8345 23.1509C15.8965 23.0889 15.9457 23.0152 15.9793 22.9342C16.0128 22.8531 16.0301 22.7663 16.0301 22.6786C16.0301 22.5908 16.0128 22.504 15.9793 22.4229C15.9457 22.3419 15.8965 22.2682 15.8345 22.2062L14.083 20.4547C14.021 20.3926 13.9473 20.3434 13.8663 20.3098C13.7853 20.2763 13.6984 20.259 13.6107 20.259C13.523 20.259 13.4361 20.2762 13.355 20.3098C13.274 20.3434 13.2004 20.3926 13.1383 20.4546L12.6308 20.9621C12.1613 20.6994 11.6625 20.4926 11.1448 20.3461V19.6289C11.1448 19.4517 11.0744 19.2818 10.9492 19.1566C10.8239 19.0313 10.654 18.9609 10.4768 18.9609H7.99979C7.82264 18.9609 7.65274 19.0313 7.52747 19.1566C7.4022 19.2818 7.33182 19.4517 7.33182 19.6289V20.3461C6.81411 20.4926 6.31537 20.6994 5.84582 20.9621L5.33846 20.4547C5.27644 20.3926 5.2028 20.3434 5.12176 20.3098C5.04072 20.2763 4.95386 20.259 4.86614 20.259C4.77842 20.259 4.69156 20.2762 4.61052 20.3098C4.52947 20.3434 4.45583 20.3926 4.3938 20.4546L2.64216 22.2061C2.51691 22.3314 2.44655 22.5013 2.44655 22.6785C2.44655 22.8556 2.51691 23.0255 2.64216 23.1508L3.1496 23.6582C2.88688 24.1278 2.68013 24.6265 2.53358 25.1442H1.81641C1.63925 25.1442 1.46935 25.2146 1.34408 25.3399C1.21881 25.4652 1.14844 25.6351 1.14844 25.8122V28.2893C1.14844 28.4664 1.21881 28.6363 1.34408 28.7616C1.46935 28.8869 1.63925 28.9572 1.81641 28.9572H2.53358C2.68009 29.475 2.88681 29.9737 3.14952 30.4433L2.64216 30.9507C2.51691 31.076 2.44655 31.2459 2.44655 31.4231C2.44655 31.6002 2.51691 31.7701 2.64216 31.8954L4.39373 33.647C4.45576 33.709 4.5294 33.7582 4.61044 33.7918C4.69149 33.8253 4.77835 33.8426 4.86607 33.8426C4.95379 33.8426 5.04065 33.8253 5.12169 33.7917C5.20273 33.7581 5.27636 33.7089 5.33838 33.6469L5.84574 33.1395C6.31531 33.4022 6.81404 33.609 7.33175 33.7556V34.4726C7.33175 34.6497 7.40213 34.8196 7.52739 34.9449C7.65266 35.0702 7.82256 35.1405 7.99972 35.1405H10.4768C10.6539 35.1405 10.8238 35.0702 10.9491 34.9449C11.0744 34.8196 11.1447 34.6497 11.1447 34.4726V33.7555C11.6625 33.6089 12.1612 33.4022 12.6308 33.1395L13.1382 33.6469C13.2635 33.7721 13.4334 33.8425 13.6105 33.8425C13.7877 33.8425 13.9576 33.7721 14.0828 33.6469ZM12.3605 31.7398C11.7506 32.148 11.0661 32.4318 10.3462 32.5747C10.1947 32.6049 10.0584 32.6867 9.9604 32.8062C9.86243 32.9256 9.80888 33.0753 9.80888 33.2298V33.8046H8.66776V33.2299C8.66776 33.0754 8.61421 32.9257 8.51624 32.8062C8.41826 32.6868 8.28192 32.605 8.13042 32.5748C7.41054 32.4318 6.72598 32.148 6.11605 31.7398C5.98755 31.654 5.83331 31.6155 5.67958 31.6307C5.52585 31.6459 5.38214 31.7139 5.27292 31.8231L4.86606 32.23L4.05915 31.4231L4.46602 31.0161C4.57525 30.9069 4.64324 30.7632 4.65841 30.6095C4.67358 30.4557 4.63499 30.3015 4.54922 30.173C4.14102 29.5631 3.85729 28.8786 3.71433 28.1587C3.68412 28.0072 3.60233 27.8709 3.4829 27.7729C3.36346 27.6749 3.21375 27.6214 3.05927 27.6214H2.48438V26.4803H3.05927C3.21376 26.4803 3.36348 26.4267 3.48292 26.3287C3.60235 26.2307 3.68413 26.0944 3.71433 25.9428C3.85816 25.2209 4.13908 24.5433 4.54929 23.9285C4.63501 23.8 4.67356 23.6458 4.65836 23.492C4.64316 23.3383 4.57517 23.1946 4.46594 23.0854L4.05907 22.6786L4.86598 21.8716L5.27285 22.2785C5.38205 22.3878 5.52577 22.4558 5.67951 22.471C5.83325 22.4862 5.9875 22.4476 6.11597 22.3618C6.72592 21.9536 7.41047 21.6699 8.13034 21.5269C8.28184 21.4967 8.41819 21.4149 8.51616 21.2955C8.61414 21.176 8.66768 21.0263 8.66769 20.8718V20.2969H9.8088V20.8718C9.80881 21.0263 9.86237 21.176 9.96036 21.2955C10.0583 21.4149 10.1947 21.4967 10.3462 21.5269C11.0683 21.6707 11.7459 21.9517 12.3605 22.3619C12.489 22.4476 12.6432 22.4862 12.7969 22.471C12.9507 22.4558 13.0944 22.3878 13.2036 22.2786L13.6105 21.8716L14.4174 22.6786L14.0105 23.0854C13.9012 23.1946 13.8332 23.3384 13.8181 23.4921C13.8029 23.6458 13.8414 23.8001 13.9272 23.9285C14.3354 24.5385 14.6192 25.223 14.7622 25.9429C14.7924 26.0944 14.8742 26.2308 14.9936 26.3287C15.113 26.4267 15.2627 26.4803 15.4172 26.4803H15.9921V27.6214H15.4172C15.2627 27.6214 15.113 27.6749 14.9936 27.7729C14.8742 27.8709 14.7924 28.0072 14.7622 28.1587C14.6191 28.8786 14.3354 29.5631 13.9272 30.173C13.8415 30.3015 13.8029 30.4557 13.8181 30.6094C13.8333 30.7631 13.9012 30.9068 14.0105 31.0161L14.4174 31.423L13.6104 32.2299L13.2036 31.823C13.0943 31.7138 12.9506 31.6459 12.7969 31.6307C12.6432 31.6155 12.489 31.6541 12.3605 31.7398ZM9.23828 22.5234C6.74193 22.5234 4.71094 24.5544 4.71094 27.0508C4.71094 29.5472 6.74193 31.5781 9.23828 31.5781C11.7346 31.5781 13.7656 29.5472 13.7656 27.0508C13.7656 24.5544 11.7346 22.5234 9.23828 22.5234ZM9.23828 30.2422C7.47856 30.2422 6.04688 28.8105 6.04688 27.0508C6.04688 25.291 7.47856 23.8594 9.23828 23.8594C10.998 23.8594 12.4297 25.291 12.4297 27.0508C12.4297 28.8105 10.998 30.2422 9.23828 30.2422ZM28.4868 22.4917C29.5318 21.8883 30.6919 21.5824 31.8671 21.5836L31.6709 21.3581C31.556 21.2242 31.4986 21.0503 31.5114 20.8744C31.5242 20.6984 31.6061 20.5347 31.7392 20.4189C31.8723 20.3031 32.0458 20.2446 32.2219 20.2563C32.3979 20.268 32.5622 20.3489 32.6788 20.4812L34.0395 22.0453C34.102 22.1171 34.1484 22.2015 34.1756 22.2927C34.2028 22.3839 34.2102 22.4798 34.1974 22.5741C34.1845 22.6684 34.1516 22.7589 34.1009 22.8395C34.0502 22.92 33.9829 22.9888 33.9035 23.0413L32.1731 24.1832C32.0642 24.2553 31.9365 24.2937 31.8058 24.2937C31.6952 24.2938 31.5863 24.2665 31.4889 24.2141C31.3914 24.1617 31.3086 24.0859 31.2477 23.9936C31.0445 23.6857 31.1294 23.2714 31.4373 23.0681L31.6575 22.9228C30.7866 22.9561 29.9311 23.2004 29.1547 23.6486C27.8976 24.3744 26.9984 25.5463 26.6227 26.9484C26.5474 27.2298 26.4946 27.5167 26.4648 27.8065C26.4466 27.9827 26.3592 28.1445 26.2218 28.2563C26.0844 28.3681 25.9082 28.4208 25.732 28.4027C25.3651 28.3649 25.0981 28.0368 25.1359 27.6699C25.173 27.3095 25.2387 26.9527 25.3323 26.6027C25.8003 24.8559 26.9207 23.3959 28.4868 22.4917ZM38.3113 32.9765L36.2764 33.373C36.183 33.3911 36.0867 33.3891 35.9942 33.3671C35.9016 33.3451 35.8147 33.3035 35.7395 33.2452C35.6643 33.1869 35.6024 33.1132 35.558 33.029C35.5135 32.9449 35.4876 32.8522 35.4819 32.7572L35.3582 30.6876C35.3363 30.3194 35.6169 30.003 35.9852 29.981C36.3529 29.9567 36.6698 30.2397 36.6918 30.6079L36.7075 30.8712C37.1142 30.1003 37.3304 29.2372 37.3304 28.3408C37.3304 26.8891 36.7651 25.5245 35.7387 24.4981C35.5327 24.2922 35.3106 24.1031 35.0746 23.9324C34.931 23.8286 34.8346 23.672 34.8064 23.4971C34.7783 23.3222 34.8208 23.1433 34.9246 22.9998C35.1407 22.7008 35.5583 22.6336 35.8572 22.8498C36.1508 23.0621 36.427 23.2974 36.6833 23.5534C37.962 24.8322 38.6662 26.5324 38.6662 28.3408C38.6662 29.5475 38.3511 30.7051 37.7626 31.7224L38.0558 31.6653C38.4181 31.5947 38.7686 31.8311 38.8392 32.1932C38.9098 32.5553 38.6734 32.906 38.3113 32.9765ZM35.0074 33.6623C35.0433 33.7423 35.063 33.8286 35.0655 33.9163C35.068 34.004 35.0532 34.0913 35.022 34.1733C34.9907 34.2553 34.9436 34.3303 34.8834 34.394C34.8232 34.4578 34.751 34.5091 34.6709 34.5449C34.3403 34.693 33.9985 34.8145 33.6486 34.9083C33.0777 35.0617 32.4891 35.1395 31.8979 35.1397C29.4889 35.1397 27.2409 33.8419 26.035 31.7569L25.9372 32.0412C25.892 32.1727 25.8068 32.2869 25.6936 32.3677C25.5803 32.4485 25.4447 32.492 25.3056 32.492C25.1992 32.4921 25.0943 32.4667 24.9998 32.4179C24.9052 32.3692 24.8236 32.2986 24.7618 32.212C24.7 32.1254 24.6598 32.0253 24.6445 31.92C24.6292 31.8147 24.6393 31.7073 24.6739 31.6067L25.3481 29.6462C25.4108 29.4641 25.5489 29.3179 25.7272 29.2451C25.9054 29.1724 26.1064 29.1799 26.2787 29.2661L28.1327 30.1936C28.2897 30.2737 28.4087 30.4126 28.4637 30.5801C28.5187 30.7475 28.5054 30.9299 28.4265 31.0876C28.3476 31.2452 28.2097 31.3652 28.0427 31.4216C27.8757 31.4779 27.6931 31.466 27.5349 31.3883L27.3016 31.2716C28.5395 33.2281 30.9512 34.2475 33.3028 33.6178C33.5841 33.5423 33.859 33.4446 34.1248 33.3255C34.2865 33.2532 34.4703 33.248 34.6358 33.3111C34.8013 33.3743 34.935 33.5006 35.0074 33.6623ZM27.0209 36.0219C27.0938 36.1833 27.0996 36.3671 27.037 36.5329C26.9743 36.6986 26.8485 36.8326 26.687 36.9055C24.6326 37.8334 22.4373 38.2966 20.245 38.2966C18.4477 38.2966 16.6527 37.984 14.937 37.3627L15.1892 37.8996C15.263 38.0597 15.2705 38.2425 15.21 38.4081C15.1496 38.5737 15.0261 38.7087 14.8665 38.7837C14.7069 38.8586 14.5242 38.8674 14.3581 38.8082C14.1921 38.749 14.0562 38.6265 13.98 38.4675L12.9834 36.3458C12.9429 36.2596 12.9213 36.1658 12.9201 36.0707C12.9188 35.9755 12.9379 35.8812 12.9761 35.794C13.0142 35.7068 13.0706 35.6288 13.1413 35.5651C13.2121 35.5015 13.2956 35.4537 13.3864 35.4249L15.6212 34.7177C15.9729 34.6062 16.3482 34.8014 16.4595 35.1529C16.513 35.3218 16.4972 35.5051 16.4155 35.6623C16.3339 35.8195 16.1932 35.9379 16.0243 35.9913L15.5159 36.1522C18.9659 37.3656 22.7586 37.2138 26.1371 35.6879C26.2986 35.6151 26.4824 35.6093 26.6481 35.6719C26.8138 35.7346 26.9479 35.8604 27.0209 36.0219ZM29.2322 8.42009C29.4475 8.12047 29.8649 8.05219 30.1644 8.26727C33.4959 10.6608 35.7255 14.226 36.4354 18.2144L36.7742 17.7276C36.876 17.5836 37.0305 17.4858 37.2042 17.4554C37.3778 17.4249 37.5564 17.4643 37.7011 17.5651C37.8458 17.6658 37.9448 17.8196 37.9766 17.993C38.0083 18.1664 37.9702 18.3453 37.8706 18.4908L36.5315 20.4147C36.4771 20.4928 36.4067 20.5584 36.3249 20.6071C36.2431 20.6558 36.1518 20.6864 36.0572 20.697C35.9626 20.7075 35.8669 20.6977 35.7764 20.6683C35.6858 20.6388 35.6027 20.5903 35.5324 20.5261L33.8025 18.9443C33.7367 18.8854 33.6833 18.814 33.6452 18.7343C33.6072 18.6546 33.5853 18.5682 33.5809 18.48C33.5765 18.3918 33.5896 18.3036 33.6195 18.2205C33.6494 18.1374 33.6955 18.061 33.7551 17.9958C33.8147 17.9307 33.8866 17.878 33.9667 17.8408C34.0468 17.8036 34.1335 17.7826 34.2217 17.7791C34.31 17.7757 34.398 17.7897 34.4808 17.8205C34.5636 17.8513 34.6395 17.8982 34.704 17.9585L35.0974 18.3182C34.4232 14.7237 32.3954 11.5152 29.3848 9.35228C29.0854 9.13704 29.017 8.71964 29.2322 8.42009ZM2.01301 19.9483C2.4201 15.8665 4.39284 12.1529 7.49184 9.54391L6.90099 9.49389C6.81358 9.4865 6.72848 9.46197 6.65056 9.42168C6.57263 9.3814 6.50341 9.32616 6.44684 9.25912C6.39027 9.19208 6.34746 9.11455 6.32086 9.03097C6.29425 8.94738 6.28438 8.85937 6.2918 8.77196C6.3229 8.40428 6.6459 8.13138 7.01372 8.1627L9.34946 8.36042C9.4443 8.36845 9.53632 8.39666 9.61936 8.44315C9.70241 8.48965 9.77456 8.55335 9.83098 8.62999C9.88741 8.70663 9.9268 8.79445 9.94653 8.88756C9.96626 8.98066 9.96586 9.07691 9.94536 9.16985L9.44045 11.4589C9.40769 11.6074 9.32526 11.7403 9.20678 11.8356C9.08831 11.9309 8.94087 11.9829 8.78881 11.9831C8.6888 11.9832 8.59005 11.9608 8.49984 11.9177C8.40963 11.8745 8.33026 11.8116 8.26759 11.7337C8.20493 11.6558 8.16056 11.5647 8.13777 11.4674C8.11498 11.37 8.11434 11.2687 8.13591 11.1711L8.25073 10.6504C5.47495 13.0316 3.71017 16.392 3.34234 20.0807C3.32219 20.2549 3.23436 20.4142 3.09781 20.5242C2.96127 20.6342 2.78695 20.6861 2.61248 20.6687C2.43801 20.6513 2.27737 20.566 2.16522 20.4312C2.05307 20.2965 1.9984 20.123 2.01301 19.9483Z"/>
                                                        </g>
                                                    </svg>