<svg width="40" height="40" viewBox="0 0 40 40" xmlns="http://www.w3.org/2000/svg">
                                                        <path d="M25.9377 11.3709C25.9181 11.3828 25.8955 11.3858 25.8759 11.4L24.6902 12.2906C24.4283 12.4878 24.3755 12.86 24.572 13.1219C24.6884 13.2774 24.8671 13.3588 25.0476 13.3588C25.1717 13.3588 25.297 13.3202 25.4039 13.24L25.4448 13.2092C24.8659 15.1804 23.0443 16.625 20.889 16.625C19.4492 16.625 18.1037 15.982 17.1959 14.861C16.9898 14.6062 16.6152 14.5671 16.3611 14.7731C16.1057 14.9797 16.0666 15.3538 16.2732 15.6079C17.4072 17.0086 19.0893 17.8125 20.889 17.8125C23.6398 17.8125 25.9531 15.9285 26.624 13.3855L26.6502 13.4205C26.7665 13.5761 26.9452 13.6574 27.1257 13.6574C27.2498 13.6574 27.3751 13.6188 27.482 13.5387C27.7438 13.3416 27.7967 12.9693 27.6002 12.7074L26.7077 11.5187C26.6988 11.5069 26.6864 11.5021 26.6769 11.4914C26.6496 11.46 26.6187 11.435 26.586 11.4101C26.5563 11.3881 26.5284 11.3662 26.4964 11.3495C26.4631 11.3329 26.4275 11.3234 26.3907 11.3127C26.3521 11.3014 26.3147 11.2919 26.2749 11.289C26.2601 11.289 26.247 11.2812 26.2327 11.2812C26.2078 11.2812 26.187 11.2925 26.1633 11.2949C26.1241 11.2997 26.0861 11.3056 26.0481 11.3181C26.0083 11.3317 25.9739 11.3501 25.9377 11.3709Z"/>
                                                        <path d="M36.9196 16.0301C36.9196 12.9479 34.557 10.4078 31.5473 10.1223C31.2504 4.49231 26.5913 0 20.8889 0C16.4702 0 12.6684 2.69622 11.0439 6.53006H10.7993C6.54332 6.53006 3.08057 9.99341 3.08057 14.25C3.08057 17.4539 5.04291 20.2059 7.82819 21.372V23.1925C5.48941 23.4864 3.67194 25.4837 3.67135 27.9015C3.67194 30.5205 5.8035 32.6515 8.42194 32.6515C11.041 32.6515 13.1713 30.5205 13.1713 27.9015C13.1713 25.4837 11.3545 23.4864 9.01569 23.1925V21.752C9.58925 21.8886 10.1848 21.9688 10.7993 21.9688H19.11V26.1553C16.114 26.4545 13.7663 28.9893 13.7663 32.0625C13.7663 35.3364 16.4298 38 19.7038 38C22.9777 38 25.6413 35.3364 25.6413 32.0625C25.6413 28.9893 23.2936 26.4545 20.2975 26.1553V21.9688H30.3883V23.1931C28.0495 23.487 26.2321 25.4843 26.2315 27.9021C26.2321 30.5211 28.3636 32.6521 30.9821 32.6521C33.6011 32.6521 35.7315 30.5211 35.7315 27.9021C35.7315 25.4843 33.9146 23.487 31.5758 23.1931V21.9391C34.5719 21.6398 36.9196 19.1045 36.9196 16.0301ZM11.9838 27.9015C11.9838 29.8662 10.3861 31.464 8.42194 31.464C6.45722 31.464 4.85944 29.8662 4.85885 27.9015C4.85944 25.9368 6.45722 24.339 8.42194 24.339C10.3861 24.339 11.9838 25.9374 11.9838 27.9015ZM24.4538 32.0625C24.4538 34.6815 22.3228 36.8125 19.7038 36.8125C17.0848 36.8125 14.9538 34.6815 14.9538 32.0625C14.9538 29.4435 17.0848 27.3125 19.7038 27.3125C22.3228 27.3125 24.4538 29.4435 24.4538 32.0625ZM4.26807 14.25C4.26807 10.7059 7.10619 7.81791 10.6283 7.72647C10.3564 8.66816 10.202 9.65972 10.202 10.6875C10.202 11.0158 10.4674 11.2812 10.7958 11.2812C11.1241 11.2812 11.3895 11.0158 11.3895 10.6875C11.3895 5.44944 15.6509 1.1875 20.8889 1.1875C26.127 1.1875 30.3883 5.44944 30.3883 10.6875C30.3883 11.0158 30.6537 11.2812 30.9821 11.2812H30.9827C33.6017 11.2812 35.7321 13.4116 35.7321 16.0301C35.7321 18.6497 33.6017 20.7812 30.9827 20.7812H10.7993C7.19763 20.7812 4.26807 17.8511 4.26807 14.25ZM34.544 27.9015C34.544 29.8662 32.9462 31.464 30.9821 31.464C29.0173 31.464 27.4196 29.8662 27.419 27.9015C27.4196 25.9368 29.0173 24.339 30.9821 24.339C32.9462 24.339 34.544 25.9374 34.544 27.9015Z"/>
                                                        <path d="M21.0643 33.6673C21.18 33.7831 21.332 33.8413 21.484 33.8413C21.636 33.8413 21.788 33.7831 21.9038 33.6673L23.0872 32.4846C23.0883 32.4834 23.0895 32.4834 23.0907 32.4822C23.2065 32.3664 23.2647 32.2138 23.2647 32.0618C23.2647 31.9098 23.2065 31.7572 23.0907 31.6414C23.0895 31.6402 23.0883 31.6402 23.0872 31.6391L21.9038 30.4551C21.6717 30.223 21.2964 30.223 21.0643 30.4551C20.8321 30.6873 20.8321 31.0625 21.0643 31.2947L21.8308 32.0618L21.0643 32.8277C20.8321 33.0599 20.8321 33.4357 21.0643 33.6673Z"/>
                                                        <path d="M18.3425 30.4551C18.1104 30.223 17.7351 30.223 17.503 30.4551L16.3226 31.6367C16.3202 31.6391 16.3173 31.6391 16.3155 31.6414C16.1991 31.7578 16.1415 31.9098 16.1421 32.0624C16.1415 32.215 16.1991 32.3676 16.3155 32.4834C16.3173 32.4857 16.3202 32.4857 16.3226 32.4881L17.503 33.6685C17.6188 33.7843 17.7707 33.8425 17.9227 33.8425C18.0748 33.8425 18.2268 33.7843 18.3425 33.6685C18.5747 33.4363 18.5747 33.0611 18.3425 32.8289L17.576 32.0624L18.3425 31.2947C18.5747 31.0625 18.5747 30.6867 18.3425 30.4551Z"/>
                                                        <path d="M18.9664 35.0146C19.0145 35.027 19.0632 35.0324 19.1107 35.0324C19.3767 35.0324 19.6184 34.8525 19.6861 34.5823L20.873 29.8311C20.9531 29.5135 20.7596 29.1911 20.4407 29.1115C20.1213 29.0302 19.8001 29.2249 19.7211 29.5438L18.5342 34.2949C18.454 34.6126 18.6482 34.935 18.9664 35.0146Z"/>
                                                        <path d="M32.3407 28.9198C32.4564 29.0356 32.6084 29.0938 32.7604 29.0938C32.9124 29.0938 33.0644 29.0356 33.1802 28.9198L33.771 28.3296C33.7722 28.3284 33.7734 28.3284 33.7746 28.3272C33.8904 28.2114 33.9485 28.0588 33.9485 27.9068C33.9485 27.7548 33.8904 27.6023 33.7746 27.4865C33.7734 27.4853 33.7722 27.4853 33.771 27.4841L33.1832 26.8963C32.951 26.6641 32.5758 26.6641 32.3436 26.8963C32.1115 27.1284 32.1115 27.5037 32.3436 27.7358L32.5146 27.9068L32.3407 28.0802C32.1091 28.3118 32.1091 28.6876 32.3407 28.9198Z"/>
                                                        <path d="M29.6215 26.8938C29.3894 26.6617 29.0141 26.6617 28.782 26.8938L28.1912 27.484C28.19 27.4852 28.1888 27.4852 28.1876 27.4864C28.0719 27.6022 28.0137 27.7548 28.0137 27.9068C28.0137 28.0588 28.0719 28.2114 28.1876 28.3272C28.1888 28.3283 28.19 28.3283 28.1912 28.3295L28.782 28.9197C28.8978 29.0355 29.0498 29.0937 29.2018 29.0937C29.3538 29.0937 29.5058 29.0355 29.6215 28.9197C29.8537 28.6876 29.8537 28.3117 29.6215 28.0802L29.4482 27.9068L29.6215 27.7334C29.8537 27.5018 29.8537 27.126 29.6215 26.8938Z"/>
                                                        <path d="M30.7011 26.5726L30.1085 28.9464C30.0295 29.2647 30.2225 29.5871 30.5413 29.6667C30.5894 29.6785 30.6381 29.6839 30.6856 29.6839C30.9516 29.6839 31.1933 29.5034 31.2616 29.2338L31.8541 26.86C31.9331 26.5417 31.7401 26.2193 31.4213 26.1398C31.1018 26.062 30.7806 26.255 30.7011 26.5726Z"/>
                                                        <path d="M9.78056 28.9198C9.89634 29.0356 10.0483 29.0938 10.2003 29.0938C10.3523 29.0938 10.5043 29.0356 10.6201 28.9198L11.2109 28.3296C11.2121 28.3284 11.2133 28.3284 11.2145 28.3272C11.3302 28.2114 11.3884 28.0588 11.3884 27.9068C11.3884 27.7548 11.3302 27.6023 11.2145 27.4865C11.2133 27.4853 11.2121 27.4853 11.2109 27.4841L10.6231 26.8963C10.3909 26.6641 10.0157 26.6641 9.78353 26.8963C9.55138 27.1284 9.55138 27.5037 9.78353 27.7358L9.95453 27.9068L9.78056 28.0802C9.54841 28.3118 9.54841 28.6876 9.78056 28.9198Z"/>
                                                        <path d="M7.06149 26.8938C6.82933 26.6617 6.45408 26.6617 6.22193 26.8938L5.63114 27.484C5.62996 27.4852 5.62877 27.4852 5.62758 27.4864C5.5118 27.6022 5.45361 27.7548 5.45361 27.9068C5.45361 28.0588 5.5118 28.2114 5.62758 28.3272C5.62877 28.3283 5.62996 28.3283 5.63114 28.3295L6.22193 28.9197C6.33771 29.0355 6.48971 29.0937 6.64171 29.0937C6.79371 29.0937 6.94571 29.0355 7.06149 28.9197C7.29364 28.6876 7.29364 28.3117 7.06149 28.0802L6.88811 27.9068L7.06149 27.7334C7.29364 27.5018 7.29364 27.126 7.06149 26.8938Z"/>
                                                        <path d="M8.141 26.5726L7.54844 28.9464C7.46947 29.2647 7.66244 29.5871 7.98128 29.6667C8.02937 29.6785 8.07806 29.6839 8.12556 29.6839C8.39156 29.6839 8.63322 29.5034 8.7015 29.2338L9.29406 26.86C9.37303 26.5417 9.18006 26.2193 8.86122 26.1398C8.54356 26.062 8.22056 26.255 8.141 26.5726Z"/>
                                                        <path d="M15.0708 12.2336L15.0719 12.2342V12.2348C15.0797 12.2449 15.0909 12.2478 15.0993 12.2573C15.1396 12.3054 15.1883 12.3428 15.2424 12.3755C15.2578 12.3856 15.2691 12.4028 15.2851 12.4111C15.2899 12.4135 15.2952 12.4123 15.2994 12.4147C15.3748 12.4497 15.4573 12.4717 15.5458 12.4717H15.5464C15.6081 12.4717 15.6704 12.4616 15.731 12.442C15.7369 12.4402 15.7411 12.4361 15.7458 12.4343C15.7494 12.4331 15.7524 12.4301 15.7559 12.4289C15.7797 12.42 15.7993 12.407 15.8213 12.3951C15.848 12.3808 15.8771 12.3719 15.902 12.3529L15.9032 12.3517L17.0889 11.4587C17.3508 11.2616 17.403 10.8893 17.2059 10.6275C17.0094 10.3668 16.6383 10.3134 16.3746 10.5105L16.3349 10.5408C16.9144 8.57134 18.7354 7.12793 20.8901 7.12793C22.3299 7.12793 23.6754 7.77096 24.5832 8.89196C24.7893 9.14668 25.1633 9.18587 25.418 8.97984C25.6734 8.77321 25.7125 8.39915 25.5059 8.14502C24.3719 6.74437 22.6898 5.94043 20.8901 5.94043C18.1399 5.94043 15.8272 7.82262 15.1557 10.3645L15.1319 10.333C14.936 10.0717 14.5631 10.0165 14.3007 10.2136C14.0388 10.4102 13.9848 10.7825 14.1813 11.0449L15.0708 12.2336Z"/>
                                                    </svg>