<svg width="40" height="40" viewBox="0 0 40 40" xmlns="http://www.w3.org/2000/svg">
                                                        <path d="M34.9611 3.28003H4.94722C4.50514 3.28053 4.08131 3.45636 3.76872 3.76896C3.45612 4.08156 3.28028 4.50539 3.27979 4.94747V28.8474C3.28028 29.2895 3.45612 29.7134 3.76872 30.0259C4.08131 30.3385 4.50514 30.5144 4.94722 30.5149H15.8916L14.5274 35.5172H13.2844V36.6288H26.6239V35.5172H25.381L24.0168 30.5149H34.9611C35.4032 30.5144 35.8271 30.3385 36.1397 30.0259C36.4522 29.7134 36.6281 29.2895 36.6286 28.8474V4.94747C36.6281 4.50539 36.4522 4.08156 36.1397 3.76896C35.8271 3.45636 35.4032 3.28053 34.9611 3.28003ZM24.2288 35.5172H15.6796L17.0438 30.5149H22.8646L24.2288 35.5172ZM35.517 28.8474C35.5168 28.9948 35.4582 29.1361 35.354 29.2403C35.2498 29.3444 35.1085 29.4031 34.9611 29.4033H4.94722C4.79987 29.4031 4.6586 29.3444 4.55441 29.2403C4.45021 29.1361 4.3916 28.9948 4.39141 28.8474V26.6242H35.517V28.8474ZM14.435 21.3666L15.2524 20.5492L16.9249 21.2145L18.6657 20.4933L19.3761 18.8428H20.5322L21.2427 20.4933L22.9834 21.2145L24.6559 20.5492L25.4733 21.3666L24.808 23.0391L25.5293 24.7799L27.1798 25.4904V25.5126H24.3647C24.2296 24.4381 23.7069 23.45 22.8948 22.7336C22.0827 22.0172 21.0371 21.622 19.9542 21.622C18.8713 21.622 17.8256 22.0172 17.0135 22.7336C16.2015 23.45 15.6788 24.4381 15.5437 25.5126H12.7286V25.4903L14.379 24.7799L15.1004 23.0391L14.435 21.3666ZM23.2419 25.5126H16.6665C16.7976 24.7355 17.1998 24.0299 17.8016 23.5211C18.4035 23.0123 19.1661 22.7332 19.9542 22.7332C20.7423 22.7332 21.5049 23.0123 22.1067 23.5211C22.7086 24.0299 23.1108 24.7355 23.2419 25.5126ZM35.517 25.5126H28.2914V24.7587L26.3835 23.9373L26.0078 23.0305L26.7767 21.0978L24.9247 19.246L22.992 20.0148L22.0853 19.6391L21.2638 17.7312H18.6445L17.8232 19.639L16.9165 20.0149L14.9838 19.246L13.1318 21.0978L13.9007 23.0305L13.525 23.9373L11.617 24.7587V25.5126H4.39141V4.94747C4.3916 4.80011 4.45021 4.65885 4.55441 4.55465C4.6586 4.45046 4.79987 4.39184 4.94722 4.39166H34.9611C35.1085 4.39184 35.2498 4.45046 35.354 4.55465C35.4582 4.65885 35.5168 4.80011 35.517 4.94747V25.5126Z"/>
                                                        <path d="M32.7381 11.6174C32.7381 10.4081 32.3796 9.22607 31.7078 8.22064C31.036 7.21521 30.0811 6.43157 28.9639 5.96882C27.8467 5.50607 26.6174 5.38499 25.4314 5.6209C24.2454 5.85681 23.156 6.4391 22.301 7.29415C21.4459 8.1492 20.8636 9.23861 20.6277 10.4246C20.3918 11.6106 20.5129 12.8399 20.9757 13.9571C21.4384 15.0743 22.222 16.0291 23.2275 16.7009C24.2329 17.3727 25.415 17.7313 26.6242 17.7313H27.18V12.1732H32.7381V11.6174ZM26.0684 16.589C25.1791 16.4903 24.3327 16.1546 23.6174 15.6171C22.9022 15.0796 22.3443 14.36 22.002 13.5333C21.6598 12.7066 21.5457 11.8033 21.6716 10.9175C21.7976 10.0317 22.1591 9.19591 22.7182 8.49745L26.0684 11.8476V16.589ZM26.8544 11.0616L23.5043 7.71139C24.2027 7.15221 25.0385 6.79076 25.9243 6.66477C26.8101 6.53878 27.7135 6.65287 28.5402 6.99514C29.3669 7.3374 30.0865 7.89529 30.624 8.61057C31.1615 9.32585 31.4972 10.1723 31.596 11.0616H26.8544Z"/>
                                                        <path d="M28.2916 18.8429H28.9169C30.2247 18.8415 31.4786 18.3213 32.4033 17.3965C33.3281 16.4718 33.8483 15.2179 33.8498 13.9101V13.2848H28.2916V18.8429ZM29.4032 14.3964H32.7073C32.5985 15.2346 32.2153 16.0132 31.6177 16.6109C31.02 17.2085 30.2414 17.5916 29.4032 17.7005V14.3964ZM17.7312 5.50342H7.72652C7.28444 5.50391 6.86061 5.67975 6.54801 5.99235C6.23541 6.30495 6.05958 6.72878 6.05908 7.17086V14.9522C6.05958 15.3943 6.23541 15.8182 6.54801 16.1308C6.86061 16.4434 7.28444 16.6192 7.72652 16.6197H17.7312C18.1732 16.6192 18.5971 16.4434 18.9097 16.1308C19.2223 15.8182 19.3981 15.3943 19.3986 14.9522V7.17086C19.3981 6.72878 19.2223 6.30495 18.9097 5.99235C18.5971 5.67975 18.1732 5.50391 17.7312 5.50342ZM18.287 14.9522C18.2868 15.0996 18.2282 15.2409 18.124 15.3451C18.0198 15.4493 17.8785 15.5079 17.7312 15.5081H7.72652C7.57917 15.5079 7.4379 15.4493 7.33371 15.3451C7.22951 15.2409 7.17089 15.0996 7.17071 14.9522V8.8383H18.287V14.9522ZM18.287 7.72667H7.17071V7.17086C7.17089 7.0235 7.22951 6.88224 7.33371 6.77804C7.4379 6.67385 7.57917 6.61523 7.72652 6.61504H17.7312C17.8785 6.61523 18.0198 6.67385 18.124 6.77804C18.2282 6.88224 18.2868 7.0235 18.287 7.17086V7.72667ZM6.05908 18.2871H12.7288V19.3988H6.05908V18.2871ZM6.05908 20.5104H11.0614V21.622H6.05908V20.5104ZM6.05908 22.7336H11.0614V23.8453H6.05908V22.7336ZM28.2916 20.5104H33.8498V21.622H28.2916V20.5104ZM28.2916 22.7336H33.8498V23.8453H28.2916V22.7336Z"/>
                                                        <path d="M10.8987 13.4474L9.62423 12.173L10.8987 10.8986L10.1126 10.1125L8.05225 12.173L10.1126 14.2335L10.8987 13.4474ZM11.6491 13.6352L12.7596 10.8575L13.7912 11.27L12.6807 14.0476L11.6491 13.6352ZM15.3452 14.2335L17.4056 12.173L15.3452 10.1125L14.5592 10.8986L15.8336 12.173L14.5592 13.4474L15.3452 14.2335Z"/>
                                                    </svg>