<svg width="16" height="16" viewBox="0 0 16 16" xmlns="http://www.w3.org/2000/svg">
                                <g>
                                    <path d="M1.03556 2.52631H8.41896C8.99112 2.52631 9.45456 1.96107 9.45456 1.26316C9.45456 0.565247 8.99112 0 8.41896 0H1.03556C0.463399 0 0 0.565247 0 1.26316C0 1.96107 0.463399 2.52631 1.03556 2.52631Z"/>
                                    <path d="M0.984016 9.26267H15.016C15.5597 9.26267 16 8.6974 16 7.99948C16 7.30157 15.5597 6.73633 15.016 6.73633H0.984016C0.440337 6.73633 0 7.30157 0 7.99948C0 8.6974 0.440337 9.26267 0.984016 9.26267Z"/>
                                    <path d="M15.0441 13.4736H8.22859C7.70046 13.4736 7.27271 14.0389 7.27271 14.7367C7.27271 15.4347 7.70046 15.9999 8.22859 15.9999H15.0441C15.5722 15.9999 16 15.4347 16 14.7367C16 14.0389 15.5722 13.4736 15.0441 13.4736Z"/>
                                </g>
                            </svg>