<svg width="40" height="40" viewBox="0 0 40 40" xmlns="http://www.w3.org/2000/svg">
                                                        <path d="M24.4003 28.7136H9.0939C8.57888 28.7165 8.07834 28.5433 7.67536 28.2225C7.27238 27.9018 6.9912 27.4529 6.8785 26.9504L5.9627 22.949C5.94391 22.8657 5.94408 22.7792 5.9632 22.696C5.98232 22.6127 6.0199 22.5349 6.07316 22.4681C6.12642 22.4013 6.194 22.3474 6.27091 22.3103C6.34782 22.2731 6.43209 22.2538 6.5175 22.2536H15.7933C15.915 22.2546 16.0356 22.2297 16.1469 22.1805C16.2583 22.1314 16.358 22.0592 16.4393 21.9686C16.5184 21.8828 16.5782 21.7812 16.6149 21.6704C16.6516 21.5597 16.6643 21.4424 16.6521 21.3264L15.8199 13.2818C15.8108 13.2028 15.819 13.1228 15.8439 13.0474C15.8689 12.9719 15.9099 12.9028 15.9643 12.8448C16.0171 12.785 16.082 12.7372 16.1548 12.7044C16.2275 12.6716 16.3063 12.6547 16.3861 12.6548H28.3599C28.4474 12.6547 28.5338 12.6748 28.6124 12.7134C28.6909 12.7521 28.7595 12.8084 28.8127 12.8778C28.866 12.9473 28.9026 13.0281 28.9196 13.1139C28.9366 13.1998 28.9337 13.2885 28.9109 13.373L24.9399 28.288C24.9085 28.408 24.8388 28.5144 24.7414 28.5912C24.6441 28.6681 24.5243 28.711 24.4003 28.7136ZM7.2319 23.3936L7.9919 26.6958C8.05081 26.9451 8.19194 27.1672 8.39255 27.3265C8.59317 27.4857 8.84156 27.5728 9.0977 27.5736H23.9633L27.6227 13.7948H17.0207L17.7807 21.2086C17.8092 21.4827 17.7796 21.7597 17.6938 22.0216C17.6081 22.2836 17.468 22.5244 17.2829 22.7286C17.0946 22.938 16.8643 23.1055 16.607 23.2201C16.3497 23.3347 16.0712 23.3938 15.7895 23.3936H7.2319Z"/>
                                                        <path d="M24.4004 28.7138C24.3505 28.7131 24.3007 28.7067 24.2522 28.6948C24.1781 28.6755 24.1087 28.6415 24.048 28.5948C23.9874 28.5482 23.9368 28.4897 23.8992 28.4231C23.8616 28.3564 23.8378 28.2828 23.8292 28.2068C23.8207 28.1307 23.8276 28.0537 23.8494 27.9804L28.4968 10.5004C28.6209 10.0372 28.8946 9.62809 29.2754 9.33667C29.6561 9.04526 30.1225 8.88793 30.602 8.88917H32.0954C32.2466 8.88917 32.3916 8.94922 32.4985 9.05612C32.6054 9.16301 32.6654 9.30799 32.6654 9.45917C32.6654 9.61034 32.6054 9.75532 32.4985 9.86222C32.3916 9.96911 32.2466 10.0292 32.0954 10.0292H30.602C30.3745 10.0277 30.1528 10.1015 29.9714 10.2389C29.79 10.3763 29.659 10.5697 29.5988 10.7892L24.94 28.2882C24.9081 28.4078 24.8382 28.514 24.741 28.5907C24.6437 28.6674 24.5242 28.7106 24.4004 28.7138Z"/>
                                                        <path d="M26.46 20.954H17.1272C16.9894 20.9492 16.858 20.8945 16.7573 20.8002C16.6567 20.7058 16.5937 20.5782 16.58 20.441L15.82 13.2818C15.8109 13.2028 15.8191 13.1228 15.844 13.0474C15.869 12.9719 15.9101 12.9028 15.9644 12.8448C16.0172 12.785 16.0822 12.7372 16.1549 12.7044C16.2276 12.6716 16.3065 12.6547 16.3862 12.6548H28.36C28.4476 12.6547 28.5339 12.6748 28.6125 12.7134C28.691 12.7521 28.7596 12.8084 28.8129 12.8778C28.8661 12.9473 28.9027 13.0281 28.9197 13.1139C28.9368 13.1998 28.9338 13.2885 28.911 13.373L27.011 20.5322C26.9778 20.653 26.906 20.7596 26.8065 20.8358C26.707 20.912 26.5853 20.9535 26.46 20.954ZM17.6402 19.814H26.023L27.6228 13.7948H17.0208L17.6402 19.814Z"/>
                                                        <path d="M19.4757 28.7136H12.9929C12.8503 28.714 12.7128 28.6607 12.6078 28.5642C12.5029 28.4677 12.4382 28.3351 12.4267 28.193L11.9517 22.873C11.9444 22.7947 11.9534 22.7158 11.9783 22.6412C12.0031 22.5666 12.0433 22.498 12.0961 22.4398C12.1498 22.3814 12.215 22.3348 12.2876 22.3028C12.3602 22.2707 12.4386 22.254 12.5179 22.2536H15.7935C15.9152 22.2546 16.0358 22.2297 16.1471 22.1805C16.2585 22.1314 16.3582 22.0592 16.4395 21.9686C16.5186 21.8828 16.5784 21.7812 16.6151 21.6704C16.6518 21.5597 16.6645 21.4424 16.6523 21.3264L15.8201 13.2818C15.811 13.2028 15.8192 13.1228 15.8441 13.0474C15.869 12.9719 15.9101 12.9028 15.9645 12.8448C16.0173 12.785 16.0822 12.7372 16.1549 12.7044C16.2277 12.6716 16.3065 12.6547 16.3863 12.6548H21.0147C21.0944 12.6547 21.1733 12.6716 21.246 12.7044C21.3187 12.7372 21.3837 12.785 21.4365 12.8448C21.4908 12.9028 21.5319 12.9719 21.5569 13.0474C21.5818 13.1228 21.59 13.2028 21.5809 13.2818L20.0609 28.2006C20.0465 28.3443 19.9781 28.4773 19.8695 28.5725C19.7608 28.6677 19.6201 28.7182 19.4757 28.7136ZM13.5135 27.5736H18.9627L20.3801 13.7948H17.0209L17.7809 21.2086C17.8094 21.4827 17.7798 21.7597 17.694 22.0217C17.6082 22.2836 17.4682 22.5244 17.2831 22.7286C17.0948 22.938 16.8645 23.1055 16.6072 23.2201C16.3499 23.3347 16.0713 23.3938 15.7897 23.3936H13.1601L13.5135 27.5736Z"/>
                                                        <path d="M24.6052 32.8786H7.45965C7.30848 32.8786 7.16349 32.8185 7.0566 32.7116C6.9497 32.6047 6.88965 32.4598 6.88965 32.3086C6.88965 32.1574 6.9497 32.0124 7.0566 31.9055C7.16349 31.7986 7.30848 31.7386 7.45965 31.7386H24.6052C25.0084 31.7386 25.395 31.5785 25.68 31.2934C25.9651 31.0083 26.1252 30.6217 26.1252 30.2186C26.1252 29.8155 25.9651 29.4288 25.68 29.1438C25.395 28.8587 25.0084 28.6986 24.6052 28.6986H11.3052C11.1541 28.6986 11.0091 28.6385 10.9022 28.5316C10.7953 28.4247 10.7352 28.2798 10.7352 28.1286C10.7352 27.9774 10.7953 27.8324 10.9022 27.7255C11.0091 27.6186 11.1541 27.5586 11.3052 27.5586H24.6052C25.3107 27.5586 25.9873 27.8388 26.4862 28.3377C26.985 28.8365 27.2652 29.5131 27.2652 30.2186C27.2652 30.9241 26.985 31.6007 26.4862 32.0995C25.9873 32.5983 25.3107 32.8786 24.6052 32.8786Z"/>
                                                        <path d="M21.0601 37.8602C20.4549 37.8572 19.8642 37.6748 19.3628 37.336C18.8614 36.9972 18.4717 36.5173 18.243 35.9569C18.0144 35.3966 17.9571 34.7811 18.0784 34.1882C18.1997 33.5953 18.4941 33.0517 18.9244 32.6262C19.3547 32.2006 19.9016 31.9123 20.4958 31.7977C21.09 31.683 21.7049 31.7472 22.2626 31.9821C22.8203 32.217 23.2959 32.612 23.629 33.1172C23.9622 33.6224 24.138 34.2151 24.1343 34.8202C24.1263 35.6299 23.7987 36.4037 23.223 36.973C22.6472 37.5424 21.8698 37.8613 21.0601 37.8602ZM21.0601 32.8822C20.6804 32.8853 20.3101 33.0009 19.9962 33.2144C19.6822 33.4279 19.4386 33.7298 19.2963 34.0818C19.154 34.4338 19.1193 34.8201 19.1966 35.1919C19.2739 35.5636 19.4597 35.9041 19.7306 36.1702C20.0015 36.4362 20.3452 36.616 20.7182 36.6866C21.0913 36.7573 21.4769 36.7157 21.8264 36.5671C22.1758 36.4185 22.4733 36.1696 22.6812 35.8519C22.8891 35.5342 22.998 35.1619 22.9943 34.7822C22.9873 34.2742 22.7803 33.7895 22.4182 33.4331C22.0561 33.0767 21.5681 32.8774 21.0601 32.8784V32.8822ZM11.6171 37.8602C11.0119 37.8572 10.4212 37.6748 9.9198 37.336C9.41835 36.9972 9.02866 36.5173 8.80004 35.9569C8.57141 35.3966 8.51412 34.7811 8.63541 34.1882C8.7567 33.5953 9.05112 33.0517 9.48143 32.6262C9.91174 32.2006 10.4586 31.9123 11.0528 31.7977C11.647 31.683 12.2619 31.7472 12.8196 31.9821C13.3773 32.217 13.8529 32.612 14.186 33.1172C14.5192 33.6224 14.695 34.2151 14.6913 34.8202C14.6833 35.6299 14.3557 36.4037 13.78 36.973C13.2042 37.5424 12.4268 37.8613 11.6171 37.8602ZM11.6171 32.8822C11.2374 32.8853 10.8671 33.0009 10.5532 33.2144C10.2392 33.4279 9.99565 33.7298 9.85331 34.0818C9.71097 34.4338 9.67626 34.8201 9.75357 35.1919C9.83087 35.5636 10.0167 35.9041 10.2876 36.1702C10.5585 36.4362 10.9022 36.616 11.2752 36.6866C11.6483 36.7573 12.034 36.7157 12.3834 36.5671C12.7328 36.4185 13.0303 36.1696 13.2382 35.8519C13.4461 35.5342 13.555 35.1619 13.5513 34.7822C13.5453 34.2739 13.3386 33.7886 12.9763 33.432C12.614 33.0754 12.1254 32.8764 11.6171 32.8784V32.8822ZM36.6135 11.6402H33.8889C33.594 11.6525 33.2997 11.6051 33.0237 11.5007C32.7476 11.3963 32.4955 11.2372 32.2826 11.033C32.0696 10.8287 31.9001 10.5834 31.7843 10.312C31.6686 10.0405 31.6089 9.74845 31.6089 9.45334C31.6089 9.15822 31.6686 8.86616 31.7843 8.5947C31.9001 8.32324 32.0696 8.078 32.2826 7.87371C32.4955 7.66943 32.7476 7.51032 33.0237 7.40596C33.2997 7.3016 33.594 7.25414 33.8889 7.26643H36.6135C36.9083 7.25414 37.2026 7.3016 37.4787 7.40596C37.7547 7.51032 38.0068 7.66943 38.2198 7.87371C38.4328 8.078 38.6022 8.32324 38.718 8.5947C38.8338 8.86616 38.8935 9.15822 38.8935 9.45334C38.8935 9.74845 38.8338 10.0405 38.718 10.312C38.6022 10.5834 38.4328 10.8287 38.2198 11.033C38.0068 11.2372 37.7547 11.3963 37.4787 11.5007C37.2026 11.6051 36.9083 11.6525 36.6135 11.6402ZM33.8889 8.40643C33.7461 8.39783 33.6031 8.41852 33.4686 8.46724C33.3341 8.51596 33.211 8.59168 33.1068 8.68974C33.0027 8.7878 32.9197 8.90612 32.863 9.03744C32.8062 9.16876 32.777 9.31029 32.777 9.45334C32.777 9.59638 32.8062 9.73791 32.863 9.86923C32.9197 10.0005 33.0027 10.1189 33.1068 10.2169C33.211 10.315 33.3341 10.3907 33.4686 10.4394C33.6031 10.4881 33.7461 10.5088 33.8889 10.5002H36.6135C36.7563 10.5088 36.8993 10.4881 37.0338 10.4394C37.1683 10.3907 37.2914 10.315 37.3955 10.2169C37.4997 10.1189 37.5827 10.0005 37.6394 9.86923C37.6961 9.73791 37.7254 9.59638 37.7254 9.45334C37.7254 9.31029 37.6961 9.16876 37.6394 9.03744C37.5827 8.90612 37.4997 8.7878 37.3955 8.68974C37.2914 8.59168 37.1683 8.51596 37.0338 8.46724C36.8993 8.41852 36.7563 8.39783 36.6135 8.40643H33.8889ZM15.7933 23.3936H3.19248C2.9109 23.3933 2.6325 23.334 2.37527 23.2195C2.11804 23.1049 1.88769 22.9377 1.69908 22.7286C1.51415 22.5244 1.37426 22.2835 1.28849 22.0216C1.20273 21.7597 1.17302 21.4827 1.20128 21.2086L2.47808 8.83584C2.52902 8.34406 2.76109 7.88883 3.12914 7.55871C3.49719 7.22859 3.97488 7.0472 4.46928 7.04984H14.5165C15.0103 7.04711 15.4875 7.22797 15.8554 7.5573C16.2234 7.88664 16.4559 8.34095 16.5077 8.83204L17.7845 21.2048C17.8127 21.4789 17.783 21.7559 17.6973 22.0178C17.6115 22.2797 17.4716 22.5206 17.2867 22.7248C17.0987 22.935 16.8686 23.1032 16.6113 23.2184C16.3539 23.3336 16.0752 23.3933 15.7933 23.3936ZM4.46928 8.19364C4.25741 8.19138 4.05224 8.26788 3.89357 8.4083C3.73489 8.54872 3.63401 8.74306 3.61048 8.95364L2.33368 21.3226C2.32072 21.4387 2.33303 21.5562 2.36976 21.667C2.4065 21.7779 2.46678 21.8795 2.54648 21.9648C2.62792 22.0555 2.72751 22.1281 2.8388 22.1779C2.95008 22.2276 3.07058 22.2534 3.19248 22.2536H15.7933C15.915 22.2546 16.0355 22.2297 16.1469 22.1806C16.2583 22.1315 16.358 22.0592 16.4393 21.9686C16.5183 21.8829 16.5782 21.7812 16.6149 21.6705C16.6516 21.5597 16.6643 21.4425 16.6521 21.3264L15.3753 8.94984C15.3517 8.73926 15.2509 8.54492 15.0922 8.4045C14.9335 8.26408 14.7284 8.18758 14.5165 8.18984L4.46928 8.19364Z"/>
                                                        <path d="M12.9319 11.2602C12.7807 11.2602 12.6357 11.2001 12.5288 11.0932C12.4219 10.9863 12.3619 10.8413 12.3619 10.6902V6.11496C12.3619 5.35405 12.0596 4.62431 11.5216 4.08627C10.9835 3.54823 10.2538 3.24596 9.49289 3.24596C8.73198 3.24596 8.00224 3.54823 7.4642 4.08627C6.92615 4.62431 6.62389 5.35405 6.62389 6.11496V10.7054C6.62389 10.8565 6.56383 11.0015 6.45694 11.1084C6.35004 11.2153 6.20506 11.2754 6.05389 11.2754C5.90271 11.2754 5.75773 11.2153 5.65084 11.1084C5.54394 11.0015 5.48389 10.8565 5.48389 10.7054V6.11496C5.48389 5.0517 5.90626 4.032 6.6581 3.28017C7.40993 2.52833 8.42963 2.10596 9.49289 2.10596C10.5561 2.10596 11.5758 2.52833 12.3277 3.28017C13.0795 4.032 13.5019 5.0517 13.5019 6.11496V10.7054C13.4979 10.8539 13.4361 10.995 13.3297 11.0986C13.2232 11.2022 13.0805 11.2602 12.9319 11.2602ZM6.96969 19.3276C6.85702 19.3275 6.74692 19.294 6.65327 19.2313C6.55963 19.1687 6.48665 19.0797 6.44355 18.9756C6.40045 18.8715 6.38916 18.757 6.41111 18.6465C6.43306 18.536 6.48727 18.4345 6.56689 18.3548L11.5905 13.3578C11.6973 13.2504 11.8424 13.1899 11.9938 13.1896C12.1453 13.1892 12.2907 13.249 12.398 13.3559C12.5053 13.4627 12.5658 13.6078 12.5662 13.7592C12.5665 13.9106 12.5067 14.056 12.3999 14.1634L7.37249 19.1604C7.265 19.2662 7.12056 19.3262 6.96969 19.3276ZM7.59289 16.0482C7.15309 16.0441 6.73267 15.8666 6.4231 15.5542C6.11354 15.2418 5.93987 14.8198 5.93989 14.38C5.93883 14.1608 5.98167 13.9437 6.06586 13.7414C6.15005 13.5391 6.27389 13.3557 6.43009 13.202C6.74475 12.8894 7.17026 12.714 7.61379 12.714C8.05731 12.714 8.48283 12.8894 8.79749 13.202C9.0306 13.4357 9.18913 13.7334 9.25299 14.0572C9.31685 14.3811 9.28318 14.7167 9.15624 15.0214C9.0293 15.3262 8.81479 15.5864 8.53988 15.7692C8.26497 15.9519 7.94201 16.049 7.61189 16.0482H7.59289ZM7.59289 13.8556C7.52238 13.8551 7.45248 13.8686 7.38725 13.8953C7.32201 13.9221 7.26274 13.9615 7.21289 14.0114C7.16319 14.0611 7.1241 14.1205 7.09798 14.1858C7.07185 14.2511 7.05924 14.321 7.06089 14.3914C7.05995 14.4619 7.07327 14.5319 7.10004 14.5972C7.12681 14.6625 7.16648 14.7218 7.21669 14.7714C7.26648 14.8215 7.32569 14.8612 7.3909 14.8883C7.45612 14.9155 7.52605 14.9294 7.59669 14.9294C7.66732 14.9294 7.73725 14.9155 7.80247 14.8883C7.86768 14.8612 7.92689 14.8215 7.97669 14.7714C8.0274 14.7219 8.06766 14.6628 8.09508 14.5976C8.1225 14.5323 8.13651 14.4622 8.13629 14.3914C8.13767 14.3207 8.12455 14.2506 8.09775 14.1852C8.07096 14.1199 8.03105 14.0607 7.98049 14.0114C7.92974 13.9606 7.86923 13.9206 7.80262 13.8938C7.73601 13.867 7.66466 13.854 7.59289 13.8556ZM11.3663 19.8064C11.1466 19.8069 10.9289 19.764 10.7258 19.6801C10.5228 19.5963 10.3382 19.4731 10.1829 19.3178C10.0275 19.1624 9.90439 18.9779 9.82054 18.7748C9.73669 18.5717 9.69378 18.3541 9.69429 18.1344C9.69458 17.916 9.73804 17.6998 9.82217 17.4983C9.9063 17.2968 10.0294 17.1139 10.1845 16.9602C10.4991 16.6476 10.9247 16.4722 11.3682 16.4722C11.8117 16.4722 12.2372 16.6476 12.5519 16.9602C12.7845 17.1944 12.9425 17.4923 13.006 17.8162C13.0696 18.1401 13.0359 18.4756 12.9091 18.7804C12.7823 19.0851 12.5681 19.3456 12.2936 19.5288C12.019 19.7121 11.6964 19.81 11.3663 19.8102V19.8064ZM11.3663 17.61C11.2957 17.6086 11.2255 17.6217 11.1601 17.6485C11.0948 17.6753 11.0356 17.7152 10.9863 17.7658C10.9354 17.8148 10.8952 17.8739 10.8684 17.9394C10.8416 18.0048 10.8286 18.0751 10.8305 18.1458C10.8296 18.2163 10.8429 18.2863 10.8696 18.3516C10.8964 18.4169 10.9361 18.4762 10.9863 18.5258C11.0874 18.626 11.2239 18.6823 11.3663 18.6823C11.5086 18.6823 11.6452 18.626 11.7463 18.5258C11.7978 18.4768 11.8388 18.4178 11.8668 18.3525C11.8949 18.2872 11.9093 18.2168 11.9093 18.1458C11.9093 18.0747 11.8949 18.0043 11.8668 17.939C11.8388 17.8737 11.7978 17.8147 11.7463 17.7658C11.6968 17.7154 11.6376 17.6756 11.5723 17.6488C11.507 17.622 11.4369 17.6088 11.3663 17.61Z"/>
                                                    </svg>