<svg width="40" height="40" viewBox="0 0 40 40" xmlns="http://www.w3.org/2000/svg">
                                                        <g>
                                                            <path d="M2.32666 36.0666V30.7329C2.32667 29.6644 3.1928 28.7983 4.26129 28.7983H5.7265C6.01831 28.7983 6.25487 29.0349 6.25487 29.3267C6.25487 29.6185 6.01831 29.855 5.7265 29.855H4.26129C3.77643 29.855 3.38342 30.2481 3.38341 30.7329V36.0666C3.38341 36.5515 3.77643 36.9445 4.26129 36.9445H12.3758C12.8606 36.9445 13.2537 36.5515 13.2537 36.0666V30.7329C13.2536 30.2481 12.8606 29.855 12.3758 29.855H8.18743C7.89564 29.855 7.65906 29.6185 7.65906 29.3267C7.65906 29.0349 7.89564 28.7983 8.18743 28.7983H12.3758C13.4443 28.7983 14.3104 29.6644 14.3104 30.7329V36.0666C14.3104 37.1351 13.4443 38.0012 12.3758 38.0012H4.26129C3.1928 38.0012 2.32666 37.1351 2.32666 36.0666ZM36.6165 14.8397C36.6165 14.3549 36.2235 13.9619 35.7387 13.9619H18.4663C17.9815 13.9619 17.5885 14.3549 17.5885 14.8397V36.0666C17.5885 36.5515 17.9815 36.9445 18.4663 36.9445H35.7387C36.2235 36.9445 36.6165 36.5515 36.6165 36.0666V14.8397ZM10.66 32.8714C10.9518 32.8714 11.1884 33.108 11.1884 33.3998C11.1884 33.6916 10.9518 33.9281 10.66 33.9281H5.97706C5.68526 33.9281 5.4487 33.6916 5.44869 33.3998C5.44869 33.108 5.68525 32.8714 5.97706 32.8714H10.66ZM2.32666 24.2856V19.5932C2.32666 19.3014 2.56322 19.0648 2.85504 19.0648C3.14685 19.0648 3.38341 19.3014 3.38341 19.5932V24.2856C3.38342 24.7705 3.77643 25.1635 4.26129 25.1635H12.3758C12.8606 25.1635 13.2536 24.7705 13.2537 24.2856V14.8397C13.2536 14.3549 12.8606 13.9619 12.3758 13.9619H4.26129C3.77644 13.9619 3.38342 14.3549 3.38341 14.8397V17.1323C3.3834 17.4241 3.14684 17.6606 2.85504 17.6606C2.56323 17.6606 2.32667 17.4241 2.32666 17.1323V14.8397C2.32667 13.7713 3.19281 12.9051 4.26129 12.9051H12.3758C13.4443 12.9051 14.3104 13.7713 14.3104 14.8397V24.2856C14.3104 25.3541 13.4443 26.2203 12.3758 26.2203H4.26129C3.1928 26.2203 2.32667 25.3541 2.32666 24.2856ZM5.75794 21.8441C6.04975 21.8441 6.2863 22.0807 6.28631 22.3725C6.28631 22.6643 6.04975 22.9008 5.75794 22.9008H5.45667C5.16485 22.9008 4.92829 22.6643 4.92829 22.3725C4.9283 22.0807 5.16486 21.8441 5.45667 21.8441H5.75794ZM11.1803 21.8441C11.4721 21.8441 11.7087 22.0807 11.7087 22.3725C11.7087 22.6643 11.4721 22.9008 11.1803 22.9008H8.30997C8.01815 22.9008 7.78159 22.6643 7.78159 22.3725C7.7816 22.0807 8.01816 21.8441 8.30997 21.8441H11.1803ZM5.75794 19.0343C6.04975 19.0343 6.28631 19.2709 6.28631 19.5627C6.28631 19.8545 6.04975 20.0911 5.75794 20.0911H5.45667C5.16485 20.0911 4.92829 19.8545 4.92829 19.5627C4.9283 19.2709 5.16486 19.0343 5.45667 19.0343H5.75794ZM11.1803 19.0343C11.4721 19.0344 11.7087 19.2709 11.7087 19.5627C11.7087 19.8545 11.4721 20.0911 11.1803 20.0911H8.30997C8.01815 20.0911 7.78159 19.8545 7.78159 19.5627C7.78159 19.2709 8.01815 19.0343 8.30997 19.0343H11.1803ZM5.75794 16.2245C6.04975 16.2245 6.28631 16.4611 6.28631 16.7529C6.28631 17.0447 6.04975 17.2813 5.75794 17.2813H5.45667C5.16486 17.2813 4.92829 17.0447 4.92829 16.7529C4.92829 16.4611 5.16485 16.2245 5.45667 16.2245H5.75794ZM11.1803 16.2245C11.4721 16.2245 11.7087 16.4611 11.7087 16.7529C11.7087 17.0447 11.4721 17.2813 11.1803 17.2813H8.30997C8.01815 17.2813 7.78159 17.0447 7.78159 16.7529C7.78159 16.4611 8.01815 16.2245 8.30997 16.2245H11.1803ZM37.1449 9.51147C37.4367 9.51148 37.6733 9.74804 37.6733 10.0398C37.6733 10.3316 37.4367 10.5682 37.1449 10.5682H2.85504C2.56323 10.5682 2.32668 10.3316 2.32666 10.0398C2.32666 9.74804 2.56322 9.51147 2.85504 9.51147H37.1449ZM11.6008 2.32178C11.7144 2.05301 12.0244 1.92722 12.2932 2.04087C12.562 2.15453 12.6877 2.46457 12.5741 2.73333L10.827 6.86485C10.7133 7.13362 10.4033 7.25934 10.1345 7.14568C9.86574 7.03203 9.74002 6.72199 9.85368 6.45322L11.6008 2.32178ZM5.19743 5.36758V2.52756C5.19743 2.23575 5.434 1.99919 5.72581 1.99918C6.01762 1.99918 6.25418 2.23574 6.25418 2.52756V5.36758C6.25417 6.15622 5.78146 6.67434 5.18484 6.97479C4.94278 7.09673 4.65771 7.1774 4.33015 7.18662L4.26404 7.18751C3.84395 7.18695 3.49547 7.06344 3.21864 6.88652V6.88645C2.97205 6.72889 2.7448 6.53197 2.58025 6.27325C2.41182 6.0084 2.32667 5.7063 2.32666 5.37054V2.52756C2.32666 2.23574 2.56322 1.99918 2.85504 1.99918C3.14685 1.99918 3.38341 2.23574 3.38341 2.52756V5.37054C3.38342 5.51889 3.41834 5.62182 3.47196 5.70614C3.52588 5.79092 3.61437 5.88094 3.75816 5.97679L3.78767 5.99606C3.90824 6.0731 4.0617 6.13048 4.26541 6.13076C4.45009 6.131 4.59444 6.08901 4.70944 6.03107L4.70958 6.031C5.06379 5.85263 5.19742 5.64355 5.19743 5.36758ZM16.6762 5.36758V2.52756C16.6762 2.23574 16.9128 1.99918 17.2046 1.99918C17.4964 1.99919 17.7329 2.23575 17.7329 2.52756V5.36758C17.7329 6.15623 17.2602 6.67435 16.6635 6.97479L16.6636 6.97486C16.4054 7.10492 16.0982 7.18797 15.7428 7.18751H15.7427C15.3489 7.18698 15.018 7.07841 14.7501 6.91906L14.6974 6.88652C14.4508 6.72895 14.2236 6.53199 14.059 6.27325C13.8906 6.0084 13.8054 5.7063 13.8054 5.37054V2.52756C13.8054 2.23574 14.042 1.99918 14.3338 1.99918C14.6256 1.9992 14.8622 2.23575 14.8622 2.52756V5.37054C14.8622 5.5189 14.8971 5.62182 14.9507 5.70614C15.0082 5.79657 15.105 5.89298 15.2664 5.99606H15.2664C15.387 6.07311 15.5404 6.13049 15.7442 6.13076L15.7783 6.13028C15.9468 6.12566 16.0804 6.08539 16.1882 6.03107L16.1883 6.031C16.5425 5.85263 16.6762 5.64356 16.6762 5.36758ZM7.40168 6.65907V2.52756C7.40168 2.23574 7.63824 1.99918 7.93006 1.99918C8.22187 1.99918 8.45843 2.23575 8.45843 2.52756V6.65907C8.45842 6.95087 8.22186 7.18744 7.93006 7.18745C7.63825 7.18745 7.40169 6.95087 7.40168 6.65907ZM21.3538 2.22326C21.5219 1.98471 21.8515 1.92758 22.09 2.09564C22.3286 2.2637 22.3858 2.5933 22.2177 2.83185L21.08 4.44677L22.4225 6.35505C22.5904 6.59372 22.533 6.9233 22.2943 7.0912C22.0556 7.25909 21.7261 7.20174 21.5582 6.96309L20.4335 5.36448L19.3072 6.96337C19.1391 7.20191 18.8095 7.25903 18.571 7.09099C18.3324 6.92293 18.2752 6.59333 18.4433 6.35477L19.7876 4.44636L18.6517 2.83158C18.4838 2.59291 18.5412 2.26333 18.7799 2.09543C19.0185 1.92753 19.3481 1.98487 19.516 2.22353L20.4341 3.52865L21.3538 2.22326ZM37.1449 6.11659C37.4367 6.11659 37.6733 6.35316 37.6733 6.64497C37.6733 6.93678 37.4367 7.17334 37.1449 7.17334H33.4686C33.1768 7.17334 32.9403 6.93678 32.9403 6.64497C32.9403 6.35316 33.1768 6.11659 33.4686 6.11659H37.1449ZM37.1449 4.06487C37.4367 4.06487 37.6733 4.30144 37.6733 4.59324C37.6733 4.88506 37.4367 5.12162 37.1449 5.12162H33.4686C33.1768 5.12162 32.9403 4.88506 32.9403 4.59324C32.9403 4.30144 33.1768 4.06487 33.4686 4.06487H37.1449ZM37.1449 2.01322C37.4367 2.01322 37.6733 2.24979 37.6733 2.54159C37.6733 2.8334 37.4367 3.06996 37.1449 3.06997H33.4686C33.1768 3.06997 32.9403 2.83341 32.9403 2.54159C32.9403 2.24979 33.1768 2.01322 33.4686 2.01322H37.1449ZM37.6733 36.0666C37.6733 37.1351 36.8071 38.0012 35.7387 38.0012H18.4663C17.3979 38.0012 16.5317 37.1351 16.5317 36.0666V14.8397C16.5317 13.7713 17.3979 12.9051 18.4663 12.9051H35.7387C36.8071 12.9051 37.6733 13.7713 37.6733 14.8397V36.0666Z"/>
                                                            <path d="M32.818 32.1653C32.818 31.5375 32.3092 31.0286 31.6813 31.0286H22.5235C21.8957 31.0286 21.3868 31.5375 21.3868 32.1653C21.3868 32.7931 21.8957 33.302 22.5235 33.302H31.6813C32.3091 33.302 32.818 32.7931 32.818 32.1653ZM31.5841 22.2733C31.5841 19.7981 29.5777 17.7916 27.1025 17.7916C25.008 17.7916 23.2482 19.2291 22.7574 21.1722C22.686 21.4551 22.3987 21.6266 22.1158 21.5551C21.8328 21.4837 21.6614 21.1964 21.7329 20.9134C22.3393 18.5126 24.5123 16.7349 27.1025 16.7349C30.1613 16.7349 32.6409 19.2145 32.6409 22.2733C32.6409 25.3321 30.1613 27.8117 27.1025 27.8117C24.5123 27.8117 22.3392 26.034 21.7329 23.6331C21.6614 23.3502 21.8328 23.0629 22.1158 22.9914C22.3987 22.92 22.686 23.0914 22.7574 23.3744C23.2481 25.3174 25.0079 26.7549 27.1025 26.7549C29.5777 26.7549 31.5841 24.7485 31.5841 22.2733ZM33.8748 32.1653C33.8748 33.3767 32.8928 34.3587 31.6813 34.3587H22.5235C21.3121 34.3587 20.3301 33.3767 20.3301 32.1653C20.3301 30.9539 21.3121 29.9718 22.5235 29.9718H31.6813C32.8928 29.9718 33.8748 30.9539 33.8748 32.1653Z"/>
                                                        </g>
                                                    </svg>