<svg width="122" height="70" viewBox="0 0 122 70" xmlns="http://www.w3.org/2000/svg" class="" style="">
                                                <path d="M0 2.85022L4.97883 5.77334L5.02091 -1.14441e-05L0 2.85022ZM122 65.9581L116.675 63.727L117.405 69.4541L122 65.9581ZM6.16582 2.98659L6.14312 3.48608C7.5356 3.54934 8.89249 3.63428 10.2151 3.74L10.2549 3.24159L10.2947 2.74318C8.96043 2.63652 7.5921 2.55088 6.18851 2.48711L6.16582 2.98659ZM14.2544 3.63552L14.1959 4.13208C15.593 4.29665 16.949 4.4859 18.2657 4.69861L18.3454 4.20501L18.4252 3.71141C17.094 3.49635 15.7238 3.30514 14.3129 3.13895L14.2544 3.63552ZM22.3364 4.94462L22.2335 5.43393C23.5812 5.71716 24.8843 6.02671 26.1451 6.361L26.2733 5.87769L26.4014 5.39439C25.1234 5.05556 23.8034 4.74202 22.4392 4.45531L22.3364 4.94462ZM30.2125 7.04409L30.0564 7.5191C31.3726 7.95167 32.6388 8.41328 33.858 8.90168L34.0439 8.43753L34.2299 7.97339C32.9906 7.47699 31.7046 7.00816 30.3686 6.56909L30.2125 7.04409ZM37.7634 10.0753L37.5462 10.5257C38.7847 11.1229 39.9706 11.75 41.108 12.4038L41.3572 11.9703L41.6064 11.5369C40.448 10.871 39.2408 10.2327 37.9805 9.62493L37.7634 10.0753ZM44.8053 14.1274L44.5244 14.541C45.66 15.3122 46.7435 16.1118 47.7804 16.9362L48.0916 16.5448L48.4027 16.1535C47.3467 15.3139 46.243 14.4994 45.0862 13.7138L44.8053 14.1274ZM51.1893 19.1982L50.8506 19.566C51.8541 20.49 52.8118 21.4376 53.73 22.4046L54.0926 22.0602L54.4551 21.7159C53.5225 20.7338 52.5489 19.7704 51.528 18.8303L51.1893 19.1982ZM56.8089 25.0996L56.4267 25.4219C57.3037 26.462 58.1453 27.5179 58.959 28.5849L59.3566 28.2817L59.7542 27.9786C58.9318 26.9002 58.0799 25.8313 57.1912 24.7773L56.8089 25.0996ZM61.7638 31.5715L61.3551 31.8596C62.14 32.9732 62.9029 34.0929 63.6519 35.2136L64.0676 34.9357L64.4833 34.6579C63.7311 33.5324 62.9634 32.4056 62.1725 31.2834L61.7638 31.5715ZM66.3113 38.3421L65.8926 38.6153C66.6398 39.7605 67.3818 40.9023 68.1249 42.0316L68.5425 41.7567L68.9602 41.4819C68.2186 40.3548 67.4787 39.2162 66.7301 38.0689L66.3113 38.3421ZM70.8138 45.1445L70.4017 45.4277C71.1795 46.5597 71.969 47.674 72.7793 48.7636L73.1805 48.4652L73.5817 48.1668C72.7805 47.0895 71.9984 45.9857 71.2259 44.8614L70.8138 45.1445ZM75.6988 51.6704L75.315 51.9908C76.1955 53.0456 77.108 54.0679 78.0624 55.0504L78.421 54.702L78.7797 54.3536C77.8449 53.3913 76.9492 52.3879 76.0826 51.3499L75.6988 51.6704ZM81.3885 57.4933L81.0637 57.8735C82.1017 58.7603 83.1903 59.6007 84.3393 60.3877L84.6218 59.9752L84.9044 59.5627C83.7864 58.7969 82.7259 57.9783 81.7133 57.1132L81.3885 57.4933ZM88.1123 62.0876L87.8781 62.5294C89.0664 63.1593 90.3145 63.7365 91.6301 64.2555L91.8136 63.7903L91.9971 63.3252C90.7162 62.8199 89.502 62.2583 88.3464 61.6458L88.1123 62.0876ZM95.6808 65.0845L95.5466 65.5661C96.8256 65.9226 98.1621 66.2296 99.5616 66.4835L99.6508 65.9915L99.7401 65.4995C98.37 65.2509 97.0634 64.9508 95.8151 64.6028L95.6808 65.0845ZM103.665 66.5519L103.615 67.0494C104.923 67.1806 106.281 67.2701 107.693 67.3155L107.709 66.8157L107.725 66.316C106.335 66.2713 105 66.1833 103.715 66.0544L103.665 66.5519ZM111.783 66.8255L111.796 67.3253C113.134 67.2908 114.516 67.2203 115.944 67.1121L115.907 66.6135L115.869 66.115C114.456 66.2219 113.091 66.2916 111.771 66.3256L111.783 66.8255Z" fill="url(#paint0_linear_1030_9383)" style=""/>
                                                <defs>
                                                    <linearGradient id="paint0_linear_1030_9383" x1="-4.93167" y1="-3.08154" x2="149.709" y2="73.8664" gradientUnits="userSpaceOnUse">
                                                        <stop offset="0"/>
                                                        <stop offset="1"/>
                                                    </linearGradient>
                                                </defs>
                                            </svg>